#N canvas 65 35 1280 624 10;
#X declare -path ../../patches;
#X obj 4 101 cnv 15 144 259 empty empty empty 20 12 0 14 -233017 -66577
0;
#N canvas 799 209 814 656 patch 1;
#X obj 101 101 cnv 15 138 40 empty empty PATCH 20 12 0 14 -66577 -262144
0;
#X obj 306 125 audio/mic;
#X obj 306 97 adc~;
#X obj 365 370 *~ 1;
#X obj 365 400 dac~;
#X obj 38 100 bng 35 250 50 0 empty empty CLOSE 4 20 0 10 -262144 -1
-1;
#X msg 38 164 \; pd-patch vis 0;
#N canvas 447 412 1038 529 open 0;
#X text 462 314 label-color;
#X text 477 339 label-color;
#X obj 377 311 t b f;
#X msg 400 277 2;
#X obj 466 220 loadbang;
#X obj 104 101 hradio 15 1 0 2 empty empty empty 0 -8 0 10 -262144
-1 -1 1;
#X obj 104 166 bang;
#X msg 363 277 43;
#X obj 101 101 cnv 15 38 15 empty \$0_opencnv open 6 8 0 10 -66577
-262144 0;
#X msg 405 398 \; \$4_opencnv color \$1 \$2 \$3;
#X obj 363 197 bang;
#X obj 404 365 pack 43 0 0 \$0;
#X obj 400 220 delay 200;
#X msg 101 247 \; pd-patch vis 1;
#X msg 614 289 \; pd-patch vis 0;
#X connect 2 1 11 0;
#X connect 3 0 2 0;
#X connect 4 0 3 0;
#X connect 4 0 14 0;
#X connect 5 0 6 0;
#X connect 6 0 10 0;
#X connect 6 0 13 0;
#X connect 7 0 2 0;
#X connect 10 0 7 0;
#X connect 10 0 12 0;
#X connect 11 0 9 0;
#X connect 12 0 3 0;
#X coords 0 -1 1 1 40 17 2 100 100;
#X restore 177 107 pd open;
#X obj 371 281 effect/reverb;
#X obj 324 176 *~ 1;
#X obj 372 258 *~ 1;
#X obj 465 281 effect/delay;
#X obj 466 252 *~ 1;
#X obj 41 208 declare -path ../../patches;
#X text 39 39 comment;
#X text 39 39 comment;
#X obj 214 341 extra/sv song;
#X obj 215 251 delay 200;
#X msg 216 275 1;
#X obj 216 302 t b f;
#X obj 141 342 s loadsong;
#X obj 41 291 audio/tempo;
#X obj 49 365 r loadsong;
#X obj 49 391 bang;
#X obj 55 442 s tempoGoIn;
#X obj 53 418 delay 300;
#X obj 325 221 audio/12sampler 1;
#X obj 215 225 r patch_loaded;
#X obj 376 437 extra/sv 1_1_loop_playsampler;
#X obj 81 523 arduino/led_loop_sampler 1 1;
#X obj 181 523 arduino/led_loop_sampler 2 1;
#X obj 277 523 arduino/led_loop_sampler 3 1;
#X obj 372 523 arduino/led_loop_sampler 4 1;
#X obj 466 523 arduino/led_loop_sampler 5 1;
#X obj 561 523 arduino/led_loop_sampler 6 1;
#X obj 81 588 arduino/led_loop_sampler 7 1;
#X obj 181 588 arduino/led_loop_sampler 8 1;
#X obj 277 588 arduino/led_loop_sampler 9 1;
#X obj 371 588 arduino/led_loop_sampler 10 1;
#X obj 465 588 arduino/led_loop_sampler 11 1;
#X obj 560 588 arduino/led_loop_sampler 12 1;
#X connect 1 0 9 0;
#X connect 2 0 1 0;
#X connect 2 1 1 0;
#X connect 3 0 4 1;
#X connect 3 0 4 0;
#X connect 5 0 6 0;
#X connect 8 0 3 0;
#X connect 9 0 26 0;
#X connect 10 0 8 0;
#X connect 11 0 3 0;
#X connect 12 0 11 0;
#X connect 17 0 18 0;
#X connect 18 0 19 0;
#X connect 19 0 20 0;
#X connect 19 1 16 1;
#X connect 22 0 23 0;
#X connect 23 0 25 0;
#X connect 25 0 24 0;
#X connect 26 0 3 0;
#X connect 26 1 10 0;
#X connect 26 2 12 0;
#X connect 27 0 17 0;
#X coords 0 -1 1 1 140 42 2 100 100;
#X restore 6 138 pd patch;
#N canvas 639 234 1070 501 connect 0;
#X obj 40 6 cnv 15 996 83 empty empty CONNECT 330 30 0 45 -21525 -88297
0;
#X obj 44 26 cnv 15 138 40 empty empty CONNECT 20 12 0 14 -66577 -262144
0;
#N canvas 402 288 1038 552 open 0;
#X obj 103 102 hradio 15 0 0 3 empty empty empty 0 -8 0 10 -262144
-1 -1 1;
#X text 462 314 label-color;
#X text 477 339 label-color;
#X obj 377 311 t b f;
#X msg 400 277 2;
#X obj 466 220 loadbang;
#X obj 104 166 bang;
#X msg 363 277 43;
#X obj 363 197 bang;
#X obj 404 365 pack 43 0 0 \$0;
#X obj 400 220 delay 200;
#X msg 104 202 \; pd-connect vis 1;
#X msg 405 398 \; \$4_connectcnv color \$1 \$2 \$3;
#X obj 101 101 cnv 15 47 15 empty \$0_connectcnv open 14 6 0 10 -66577
-262144 0;
#X obj 594 296 bang;
#X msg 594 332 \; pd-connect vis 0;
#X connect 0 0 6 0;
#X connect 3 1 9 0;
#X connect 4 0 3 0;
#X connect 5 0 4 0;
#X connect 5 0 14 0;
#X connect 6 0 8 0;
#X connect 6 0 11 0;
#X connect 7 0 3 0;
#X connect 8 0 7 0;
#X connect 8 0 10 0;
#X connect 9 0 12 0;
#X connect 10 0 4 0;
#X connect 14 0 15 0;
#X coords 0 -1 1 1 49 17 2 100 100;
#X restore 127 47 pd open;
#X obj 40 103 arduino/arduino;
#X obj 236 103 connect/connect_mic;
#X obj 38 159 hardware/midi;
#X obj 37 217 hardware/keyboard;
#X obj 903 114 connect/connect_song;
#X obj 36 278 hardware/osc_router;
#X obj 378 103 connect/connect_12sampler;
#X coords 0 -1 1 1 140 42 1 43 25;
#X restore 6 191 pd connect;
#N canvas 315 246 721 359 volumes 0;
#X obj 24 -13 cnv 15 650 83 empty empty VOLUMES 330 30 0 45 -21525
-88297 0;
#X obj 28 80 volume/volume_mic;
#X obj 44 26 cnv 15 138 40 empty empty VOLUMES 20 12 0 14 -66577 -262144
0;
#N canvas 285 163 1038 575 open 0;
#X obj 103 102 hradio 15 0 0 3 empty empty empty 0 -8 0 10 -262144
-1 -1 1;
#X text 462 314 label-color;
#X text 477 339 label-color;
#X obj 377 311 t b f;
#X msg 400 277 2;
#X obj 466 220 loadbang;
#X obj 104 166 bang;
#X msg 363 277 43;
#X obj 363 197 bang;
#X obj 404 365 pack 43 0 0 \$0;
#X obj 400 220 delay 200;
#X obj 101 101 cnv 15 47 15 empty \$0_volumescnv open 14 6 0 10 -66577
-262144 0;
#X msg 104 202 \; pd-volumes vis 1;
#X msg 405 398 \; \$4_volumescnv color \$1 \$2 \$3;
#X msg 552 270 \; pd-volumes vis 0;
#X connect 0 0 6 0;
#X connect 3 1 9 0;
#X connect 4 0 3 0;
#X connect 5 0 4 0;
#X connect 5 0 14 0;
#X connect 6 0 8 0;
#X connect 6 0 12 0;
#X connect 7 0 3 0;
#X connect 8 0 7 0;
#X connect 8 0 10 0;
#X connect 9 0 13 0;
#X connect 10 0 4 0;
#X coords 0 -1 1 1 49 17 2 100 100;
#X restore 127 47 pd open;
#X obj 476 80 volume/volume_delay;
#X obj 332 80 volume/volume_reverb;
#X obj 209 0 bng 55 250 50 0 save_all empty SAVE 10 25 0 15 -258113
-1 -1;
#X obj 188 80 volume/volume_samplerlooper 1;
#X coords 0 -1 1 1 140 42 1 43 25;
#X restore 8 241 pd volumes;
#X obj 261 121 canvas.dir;
#X obj 261 145 symbol;
#X obj 261 171 string;
#X obj 294 271 list.length;
#X obj 262 221 list append;
#X obj 294 296 t f f;
#X obj 321 323 - 1;
#X obj 293 323 - 2;
#X obj 238 353 list.at;
#X obj 236 381 str->sym;
#X obj 300 355 list.at;
#X obj 304 381 str->sym;
#X obj 260 64 loadbang;
#X text 449 127 This hidden part locate the current patch;
#X text 451 157 and store it into 2 value :;
#X text 451 188 1 canvas_folder = "machine" or "exemple";
#X text 451 209 2 canvas_index = 1 2 3 ..etc;
#X obj 235 66 bng 15 250 50 0 empty empty empty 17 7 0 10 -262144 -1
-1;
#X obj 235 494 s patch_folder;
#X obj 262 243 t l l l;
#X obj 236 408 pack s s;
#X msg 236 433 ../../\$1/\$2;
#X obj 236 460 symbol;
#X obj 94 495 print nogui_dir;
#X msg 351 172 @sep \$1;
#X msg 351 124 /, f 2;
#X obj 351 149 symbol;
#X obj 262 197 string.split;
#X obj 260 93 t b b;
#X connect 4 0 5 0;
#X connect 5 0 6 0;
#X connect 6 0 31 0;
#X connect 7 0 9 0;
#X connect 8 0 23 0;
#X connect 9 0 11 0;
#X connect 9 1 10 0;
#X connect 10 0 14 1;
#X connect 11 0 12 1;
#X connect 12 0 13 0;
#X connect 13 0 24 0;
#X connect 14 0 15 0;
#X connect 15 0 24 1;
#X connect 16 0 32 0;
#X connect 21 0 4 0;
#X connect 23 0 12 0;
#X connect 23 1 14 0;
#X connect 23 2 7 0;
#X connect 24 0 25 0;
#X connect 25 0 26 0;
#X connect 26 0 22 0;
#X connect 26 0 27 0;
#X connect 28 0 31 0;
#X connect 29 0 30 0;
#X connect 30 0 28 0;
#X connect 31 0 8 0;
#X connect 32 0 4 0;
#X connect 32 1 29 0;
#X coords 0 -1 1 1 146 260 1 3 100;
