#N canvas 802 152 976 643 10;
#X obj 193 39 bng 15 250 50 0 empty empty empty 17 7 0 10 -262144 -1
-1;
#X obj 220 39 bng 15 250 50 0 empty empty empty 17 7 0 10 -262144 -1
-1;
#X obj 321 392 s \$1_\$2_readloop_volume_fromUI;
#N canvas 716 201 679 427 volume 0;
#X floatatom 244 309 5 0 0 0 - - -;
#X obj 85 103 vsl 10 71 0 100 0 0 empty empty empty 0 -9 0 10 -170864
-1 -1 0 0;
#X msg 247 502 \; \$3_slider vis_size \$2 \$1;
#X obj 83 101 cnv 8 14 80 empty empty empty 20 12 0 14 -99865 -66577
0;
#X obj 84 103 cnv 5 12 76 empty empty empty 20 12 0 14 -1375 -66577
0;
#X obj 84 103 cnv 3 12 67 empty \$0_slider empty 20 12 0 14 -170864
-66577 0;
#X obj 244 339 / 100;
#X obj 244 370 * -1;
#X obj 244 401 + 1;
#X obj 357 419 * 255;
#X obj 356 465 outlet;
#X obj 182 70 inlet;
#X obj 180 133 / 200;
#X obj 244 432 * 78;
#X obj 244 463 pack 0 12 \$0;
#X connect 0 0 6 0;
#X connect 1 0 0 0;
#X connect 6 0 7 0;
#X connect 6 0 9 0;
#X connect 7 0 8 0;
#X connect 8 0 13 0;
#X connect 9 0 10 0;
#X connect 11 0 12 0;
#X connect 12 0 13 0;
#X connect 13 0 14 0;
#X connect 14 0 2 0;
#X coords 0 -1 1 1 16 82 2 82 100;
#X restore 332 280 pd volume;
#X obj 552 -44 r \$1_\$2_realtempo_toUI;
#X obj 552 11 makefilename %d;
#X obj 552 37 symbol \$1;
#X obj 553 105 pack \$0 s;
#X obj 552 72 t b s;
#X obj 552 -14 i 0;
#X obj 510 500 t b f;
#X obj 537 529 pack 22 0 0 \$0;
#X msg 537 560 \; \$4_temposlider color \$1 \$2 \$3;
#X msg 510 469 30;
#X msg 543 470 32;
#X text 550 -75 Display the real tempo of the loop;
#X text 501 184 Display is the loop is active or not;
#X obj 58 428 t b f;
#X msg 58 397 30;
#X obj 57 367 sel 0 1;
#X text 48 291 Change background is the loop is selected;
#X msg 85 488 \; \$4_bgcnv color \$1 \$2 \$3;
#X msg 553 142 \; \$1_temposlider label \$2;
#N canvas 430 216 1038 529 play 0;
#X obj 368 -95 loadbang;
#X obj 106 100 hradio 23 1 0 2 empty empty empty 0 -8 0 10 -262144
-1 -1 1;
#X obj 100 100 cnv 15 59 24 empty \$0_playcnv PLAY 20 12 0 15 -1 -24198
0;
#X obj 105 214 bang;
#X obj 101 260 outlet;
#X obj 336 -240 inlet;
#X obj 396 -240 inlet;
#X obj 335 -199 t b b;
#X obj 395 -198 t b b;
#X text 784 10 label-color;
#X text 799 35 label-color;
#X obj 499 14 pack 22 0 0 \$0;
#X obj 499 -13 t b f;
#X msg 522 -47 2;
#X msg 500 47 \; \$4_playcnv color \$1 \$2 \$3;
#X msg 485 -47 46;
#X connect 0 0 13 0;
#X connect 1 0 3 0;
#X connect 3 0 4 0;
#X connect 5 0 7 0;
#X connect 6 0 8 0;
#X connect 7 0 15 0;
#X connect 8 0 13 0;
#X connect 11 0 14 0;
#X connect 12 0 11 0;
#X connect 12 1 11 2;
#X connect 13 0 12 0;
#X connect 15 0 12 0;
#X coords 0 -1 1 1 60 25 2 100 100;
#X restore 103 121 pd play;
#X obj 106 148 hsl 55 20 0 1 0 0 empty \$0_temposlider 0 45 27 0 10
-66577 -262144 -262144 0 1;
#N canvas 402 345 1038 529 open 0;
#X text 462 314 label-color;
#X text 477 339 label-color;
#X obj 377 311 t b f;
#X msg 400 277 2;
#X obj 551 220 loadbang;
#X obj 104 101 hradio 15 1 0 2 empty empty empty 0 -8 0 10 -262144
-1 -1 1;
#X obj 104 166 bang;
#X msg 363 277 43;
#X obj 101 101 cnv 15 38 15 empty \$0_opencnv open 6 8 0 10 -66577
-262144 0;
#X msg 536 421 \; \$4_opencnv color \$1 \$2 \$3;
#X obj 363 197 bang;
#X obj 535 388 pack 43 0 0 \$0;
#X obj 380 239 delay 200;
#X obj 102 208 s \$1_\$2_loop_open_browser;
#X connect 2 1 11 0;
#X connect 3 0 2 0;
#X connect 4 0 3 0;
#X connect 5 0 6 0;
#X connect 6 0 10 0;
#X connect 6 0 13 0;
#X connect 7 0 2 0;
#X connect 10 0 7 0;
#X connect 10 0 12 0;
#X connect 11 0 9 0;
#X connect 12 0 3 0;
#X coords 0 -1 1 1 40 17 2 100 100;
#X restore 103 170 pd open;
#X floatatom 267 216 3 0 0 0 - - -;
#X obj 267 240 s \$1_\$2_loop_transpose;
#X obj 707 245 r \$1_\$2_recloop_deleted_ui;
#X msg 510 325 bang;
#X msg 570 326 stop;
#X obj 577 297 t b b;
#X obj 549 391 tgl 15 0 empty empty empty 17 7 0 10 -262144 -1 -1 0
1;
#X obj 549 420 sel 1;
#X obj 603 450 bang;
#X obj 534 366 metro 100;
#X obj -127 359 pack \$1 \$2 \$0;
#X obj -127 330 loadbang;
#X obj -147 331 bng 15 250 50 0 empty empty empty 17 7 0 10 -262144
-1 -1;
#X obj 85 457 pack 22 2 2 \$0;
#X msg 98 397 77;
#X obj 101 101 cnv 15 68 20 empty \$0_bgcnv S_7 20 12 0 12 -262144
-66577 0;
#X obj 57 312 extra/sv module_selected;
#X obj 57 338 == \$1;
#X obj 704 -43 loadbang;
#X obj -143 148 extra/sv \$1_\$2_recloop_slider;
#X msg 348 99 1;
#X obj 292 178 extra/sv \$1_\$2_loop_playbutton;
#X obj 510 224 r \$1_\$2_loop_clear;
#X obj 520 244 extra/sv \$1_\$2_is_loop_recorded;
#X obj 520 291 t b b;
#X obj 520 269 sel 1 0;
#X obj 393 113 bang;
#X msg 393 151 0;
#X obj 394 132 del 100;
#X obj 191 -47 extra/sv \$1_\$2_loop_playsampler;
#X obj 188 -12 sel 1 0;
#X msg -127 392 \; \$3_bgcnv label S_\$1;
#X connect 0 0 23 0;
#X connect 1 0 23 1;
#X connect 3 0 2 0;
#X connect 4 0 9 0;
#X connect 5 0 6 0;
#X connect 6 0 8 0;
#X connect 7 0 22 0;
#X connect 8 0 7 0;
#X connect 8 1 7 1;
#X connect 9 0 5 0;
#X connect 10 1 11 0;
#X connect 11 0 12 0;
#X connect 13 0 10 0;
#X connect 14 0 10 0;
#X connect 17 1 39 0;
#X connect 18 0 17 0;
#X connect 19 0 18 0;
#X connect 19 1 40 0;
#X connect 23 0 55 0;
#X connect 26 0 27 0;
#X connect 28 0 31 0;
#X connect 29 0 35 0;
#X connect 30 0 35 0;
#X connect 31 0 30 0;
#X connect 31 1 34 0;
#X connect 32 0 33 0;
#X connect 33 0 13 0;
#X connect 33 1 14 0;
#X connect 34 0 13 0;
#X connect 35 0 32 0;
#X connect 36 0 57 0;
#X connect 37 0 36 0;
#X connect 38 0 36 0;
#X connect 39 0 21 0;
#X connect 40 0 17 0;
#X connect 42 0 43 0;
#X connect 43 0 19 0;
#X connect 44 0 9 0;
#X connect 45 0 24 0;
#X connect 46 0 47 1;
#X connect 46 0 52 0;
#X connect 48 0 29 0;
#X connect 49 0 51 0;
#X connect 50 0 14 0;
#X connect 50 1 30 0;
#X connect 51 0 50 0;
#X connect 51 1 13 0;
#X connect 52 0 54 0;
#X connect 53 0 47 1;
#X connect 54 0 53 0;
#X connect 55 0 56 0;
#X connect 56 0 0 0;
#X connect 56 1 1 0;
#X coords 0 -1 1 1 70 90 2 100 100;
