#N canvas 317 98 891 770 10;
#X declare -path ../../patches;
#X obj 101 101 cnv 15 680 81 empty empty LUCIBOX 20 36 0 45 -21525
-88297 0;
#N canvas 460 23 1098 761 patch 1;
#X obj 101 101 cnv 15 138 40 empty empty PATCH 20 12 0 14 -66577 -262144
0;
#X obj 535 449 dac~;
#X obj 38 100 bng 35 250 50 0 empty empty CLOSE 4 20 0 10 -262144 -1
-1;
#X msg 38 164 \; pd-patch vis 0;
#N canvas 447 412 1038 529 open 0;
#X text 462 314 label-color;
#X text 477 339 label-color;
#X obj 377 311 t b f;
#X msg 400 277 2;
#X obj 466 220 loadbang;
#X obj 104 101 hradio 15 1 0 2 empty empty empty 0 -8 0 10 -262144
-1 -1 1;
#X obj 104 166 bang;
#X msg 363 277 43;
#X obj 101 101 cnv 15 38 15 empty \$0_opencnv open 6 8 0 10 -66577
-262144 0;
#X msg 405 398 \; \$4_opencnv color \$1 \$2 \$3;
#X obj 363 197 bang;
#X obj 404 365 pack 43 0 0 \$0;
#X obj 400 220 delay 200;
#X msg 101 247 \; pd-patch vis 1;
#X msg 614 289 \; pd-patch vis 0;
#X connect 2 1 11 0;
#X connect 3 0 2 0;
#X connect 4 0 3 0;
#X connect 4 0 14 0;
#X connect 5 0 6 0;
#X connect 6 0 10 0;
#X connect 6 0 13 0;
#X connect 7 0 2 0;
#X connect 10 0 7 0;
#X connect 10 0 12 0;
#X connect 11 0 9 0;
#X connect 12 0 3 0;
#X coords 0 -1 1 1 40 17 2 100 100;
#X restore 177 107 pd open;
#X obj 304 348 s ledrec1;
#X obj 367 349 s ledplay1;
#X obj 470 349 s ledrec2;
#X obj 535 350 s ledplay2;
#X text 22 368 Manage Reset when;
#X text 27 433 no module selected and long press;
#X obj 535 415 *~ 1;
#X obj 852 349 s ledplay4;
#X obj 786 350 s ledrec4;
#X obj 694 350 s ledplay3;
#X obj 618 350 s ledrec3;
#N canvas 426 224 784 449 autostop_from_loop 0;
#X obj 155 39 extra/sv 1_1_is_loop_playing;
#X obj 188 62 extra/sv 2_1_is_loop_playing;
#X obj 215 85 extra/sv 3_1_is_loop_playing;
#X obj 232 107 extra/sv 4_1_is_loop_playing;
#X obj 162 195 extra/sv 1_1_is_loop_playing;
#X obj 142 220 extra/sv 2_1_is_loop_playing;
#X obj 122 241 extra/sv 3_1_is_loop_playing;
#X obj 102 264 extra/sv 4_1_is_loop_playing;
#X obj 217 151 bng 15 250 50 0 empty empty empty 17 7 0 10 -262144
-1 -1;
#X obj 230 171 t b b b b;
#X obj 337 241 +;
#X obj 319 266 +;
#X obj 301 289 +;
#X floatatom 301 309 5 0 0 0 - - -;
#X obj 300 326 sel 0;
#X obj 300 352 s tempoStopIn;
#X obj 280 353 bng 15 250 50 0 empty empty empty 17 7 0 10 -262144
-1 -1;
#X text 454 40 This patch stop the global player \, if all looper are
stop;
#X connect 0 0 8 0;
#X connect 1 0 8 0;
#X connect 2 0 8 0;
#X connect 3 0 8 0;
#X connect 4 1 10 1;
#X connect 5 1 10 0;
#X connect 6 1 11 0;
#X connect 7 1 12 0;
#X connect 8 0 9 0;
#X connect 9 0 7 2;
#X connect 9 1 6 2;
#X connect 9 2 5 2;
#X connect 9 3 4 2;
#X connect 10 0 11 1;
#X connect 11 0 12 1;
#X connect 12 0 13 0;
#X connect 13 0 14 0;
#X connect 14 0 15 0;
#X connect 14 0 16 0;
#X restore 22 383 pd autostop_from_loop;
#X obj 35 283 declare -path ../../patches;
#X obj 247 319 *~ 1;
#N canvas 480 100 725 541 global_play_delete 0;
#N canvas 293 165 623 468 longORshort 0;
#X obj 153 75 inlet;
#X obj 152 180 timer;
#X obj 153 119 sel 0;
#X obj 187 149 bang;
#X obj 151 224 > 500;
#X obj 151 298 bng 15 250 50 0 empty empty empty 17 7 0 10 -262144
-1 -1;
#X obj 151 419 outlet;
#X obj 223 417 outlet;
#X obj 380 102 sel 0;
#X obj 398 239 i 0;
#X obj 398 270 sel 0;
#X obj 431 312 bng 15 250 50 0 empty empty empty 17 7 0 10 -262144
-1 -1;
#X obj 182 296 bng 15 250 50 0 empty empty empty 17 7 0 10 -262144
-1 -1;
#X obj 398 310 bng 15 250 50 0 empty empty empty 17 7 0 10 -262144
-1 -1;
#X obj 151 256 sel 0 1;
#X obj 451 234 bng 15 250 50 0 empty empty empty 17 7 0 10 -262144
-1 -1;
#X obj 458 160 bng 15 250 50 0 empty empty empty 17 7 0 10 -262144
-1 -1;
#X obj 444 196 delay 1000;
#X connect 0 0 2 0;
#X connect 0 0 8 0;
#X connect 0 0 9 1;
#X connect 1 0 4 0;
#X connect 2 0 1 1;
#X connect 2 1 3 0;
#X connect 3 0 1 0;
#X connect 4 0 14 0;
#X connect 5 0 6 0;
#X connect 8 1 16 0;
#X connect 9 0 10 0;
#X connect 10 0 13 0;
#X connect 10 1 11 0;
#X connect 11 0 7 0;
#X connect 14 0 5 0;
#X connect 14 1 12 0;
#X connect 16 0 17 0;
#X connect 17 0 9 0;
#X connect 17 0 15 0;
#X restore 143 115 pd longORshort;
#X obj 176 35 extra/sv module_selected;
#X obj 143 85 spigot;
#X obj 143 15 extra/sv global_play;
#X obj 176 58 == 0;
#X obj 249 214 extra/sv tempo_isplaying;
#X msg 262 153 0;
#X obj 173 168 bang;
#X obj 173 214 s bigReset;
#X obj 217 137 t b b;
#X obj 280 132 bng 15 250 50 0 empty empty empty 17 7 0 10 -262144
-1 -1;
#X obj 196 433 extra/sv tempo_isplaying;
#X obj 25 240 extra/sv 1_1_is_loop_playing;
#X obj 5 265 extra/sv 2_1_is_loop_playing;
#X obj -15 286 extra/sv 3_1_is_loop_playing;
#X obj -35 309 extra/sv 4_1_is_loop_playing;
#X obj 80 196 bng 15 250 50 0 empty empty empty 17 7 0 10 -262144 -1
-1;
#X obj 93 216 t b b b b;
#X obj 200 286 +;
#X obj 182 311 +;
#X obj 164 334 +;
#X floatatom 164 354 5 0 0 0 - - -;
#X obj 164 376 sel 0;
#X text -24 136 short press : global stop or play;
#X text -24 155 if there is one loop or more playing;
#X text -25 172 else : do nothing;
#X connect 0 0 16 0;
#X connect 0 1 9 0;
#X connect 0 1 10 0;
#X connect 1 0 4 0;
#X connect 2 0 0 0;
#X connect 3 0 2 0;
#X connect 4 0 2 1;
#X connect 6 0 5 1;
#X connect 7 0 8 0;
#X connect 9 0 7 0;
#X connect 9 1 6 0;
#X connect 12 1 18 1;
#X connect 13 1 18 0;
#X connect 14 1 19 0;
#X connect 15 1 20 0;
#X connect 16 0 17 0;
#X connect 17 0 15 2;
#X connect 17 1 14 2;
#X connect 17 2 13 2;
#X connect 17 3 12 2;
#X connect 18 0 19 1;
#X connect 19 0 20 1;
#X connect 20 0 21 0;
#X connect 21 0 22 0;
#X connect 22 1 11 0;
#X restore 26 456 pd global_play_delete;
#X obj 780 152 extra/sv song;
#X obj 780 47 loadbang;
#X obj 780 76 delay 2000;
#X msg 803 127 1;
#X obj 710 154 s loadsong;
#X obj 780 97 t b b b;
#X obj 642 134 s tempStopIn;
#X obj 745 130 delay 500;
#X obj 283 317 audio/loop 1 1 2 2 1 0;
#X obj 439 317 audio/loop 2 1 2 2 1 0;
#X obj 606 319 audio/loop 3 1 2 2 1 0;
#X obj 763 318 audio/loop 4 1 2 2 1 0;
#X obj 20 336 extra/multiple_selection_manager;
#X obj 21 309 audio/tempo;
#X obj 251 523 arduino/led_loop_breakbeat 1 1;
#X obj 412 522 arduino/led_loop_breakbeat 2 1;
#X obj 570 522 arduino/led_loop_breakbeat 3 1;
#X obj 727 522 arduino/led_loop_breakbeat 4 1;
#X obj 256 601 arduino/led_song;
#X obj 256 690 pack 2 0 1 1;
#X obj 256 712 s arduinoIN;
#X obj 256 669 bng 15 250 50 0 empty empty empty 17 7 0 10 -262144
-1 -1;
#X connect 2 0 3 0;
#X connect 11 0 1 1;
#X connect 11 0 1 0;
#X connect 18 0 11 0;
#X connect 21 0 22 0;
#X connect 22 0 25 0;
#X connect 23 0 20 1;
#X connect 25 0 26 0;
#X connect 25 1 27 0;
#X connect 25 2 23 0;
#X connect 27 0 24 0;
#X connect 28 0 11 0;
#X connect 28 3 5 0;
#X connect 28 4 6 0;
#X connect 29 0 11 0;
#X connect 29 3 7 0;
#X connect 29 4 8 0;
#X connect 30 0 11 0;
#X connect 30 3 15 0;
#X connect 30 4 14 0;
#X connect 31 0 11 0;
#X connect 31 3 13 0;
#X connect 31 4 12 0;
#X connect 38 0 41 0;
#X connect 39 0 40 0;
#X connect 41 0 39 0;
#X coords 0 -1 1 1 140 42 2 100 100;
#X restore 317 118 pd patch;
#N canvas 434 192 677 441 connect 0;
#X obj 625 97 connect/connect_global_recplay;
#X obj 40 6 cnv 15 996 83 empty empty CONNECT 330 30 0 45 -21525 -88297
0;
#X obj 648 509 s effect_rev_drywet;
#X obj 44 26 cnv 15 138 40 empty empty CONNECT 20 12 0 14 -66577 -262144
0;
#N canvas 402 288 1038 552 open 0;
#X obj 103 102 hradio 15 0 0 3 empty empty empty 0 -8 0 10 -262144
-1 -1 1;
#X text 462 314 label-color;
#X text 477 339 label-color;
#X obj 377 311 t b f;
#X msg 400 277 2;
#X obj 466 220 loadbang;
#X obj 104 166 bang;
#X msg 363 277 43;
#X obj 363 197 bang;
#X obj 404 365 pack 43 0 0 \$0;
#X obj 400 220 delay 200;
#X msg 104 202 \; pd-connect vis 1;
#X msg 405 398 \; \$4_connectcnv color \$1 \$2 \$3;
#X obj 101 101 cnv 15 47 15 empty \$0_connectcnv open 14 6 0 10 -66577
-262144 0;
#X obj 594 296 bang;
#X msg 594 332 \; pd-connect vis 0;
#X connect 0 0 6 0;
#X connect 3 1 9 0;
#X connect 4 0 3 0;
#X connect 5 0 4 0;
#X connect 5 0 14 0;
#X connect 6 0 8 0;
#X connect 6 0 11 0;
#X connect 7 0 3 0;
#X connect 8 0 7 0;
#X connect 8 0 10 0;
#X connect 9 0 12 0;
#X connect 10 0 4 0;
#X connect 14 0 15 0;
#X coords 0 -1 1 1 49 17 2 100 100;
#X restore 127 47 pd open;
#X obj 585 14 arduino/arduino;
#X obj 35 337 connect/connect_mic;
#X obj 783 11 hardware/midi;
#X obj 647 488 extra/midiLearn effect_rev_drywet;
#X obj 913 98 connect/connect_song;
#X obj 625 263 connect/connect_global_breakbeat;
#X obj 36 93 connect/connect_loop 1 1;
#X obj 182 93 connect/connect_loop 2 1;
#X obj 328 93 connect/connect_loop 3 1;
#X obj 473 93 connect/connect_loop 4 1;
#X obj 406 63 bng 15 250 50 0 connect_clear_all empty clear_all 17
7 0 10 -258113 -1 -228856;
#X connect 8 0 2 0;
#X coords 0 -1 1 1 140 42 1 43 25;
#X restore 460 118 pd connect;
#N canvas 977 349 1175 592 volumes 0;
#X obj 24 -12 cnv 15 880 83 empty empty VOLUMES 330 30 0 45 -21525
-88297 0;
#X obj 44 26 cnv 15 138 40 empty empty VOLUMES 20 12 0 14 -66577 -262144
0;
#N canvas 285 163 1038 575 open 0;
#X obj 103 102 hradio 15 0 0 3 empty empty empty 0 -8 0 10 -262144
-1 -1 2;
#X text 462 314 label-color;
#X text 477 339 label-color;
#X obj 377 311 t b f;
#X msg 400 277 2;
#X obj 466 220 loadbang;
#X obj 104 166 bang;
#X msg 363 277 43;
#X obj 363 197 bang;
#X obj 404 365 pack 43 0 0 \$0;
#X obj 400 220 delay 200;
#X obj 101 101 cnv 15 47 15 empty \$0_volumescnv open 14 6 0 10 -66577
-262144 0;
#X msg 104 202 \; pd-volumes vis 1;
#X msg 405 398 \; \$4_volumescnv color \$1 \$2 \$3;
#X msg 552 270 \; pd-volumes vis 0;
#X connect 0 0 6 0;
#X connect 3 1 9 0;
#X connect 4 0 3 0;
#X connect 5 0 4 0;
#X connect 5 0 14 0;
#X connect 6 0 8 0;
#X connect 6 0 12 0;
#X connect 7 0 3 0;
#X connect 8 0 7 0;
#X connect 8 0 10 0;
#X connect 9 0 13 0;
#X connect 10 0 4 0;
#X coords 0 -1 1 1 49 17 2 100 100;
#X restore 127 47 pd open;
#X obj 763 78 volume/volume_delay;
#X obj 615 78 volume/volume_reverb;
#X obj 242 9 bng 55 250 50 0 save_all empty SAVE 10 25 0 15 -258113
-1 -1;
#X obj 25 75 volume/volume_loop 1 1;
#X obj 172 76 volume/volume_loop 2 1;
#X obj 318 77 volume/volume_loop 3 1;
#X obj 466 78 volume/volume_loop 4 1;
#X coords 0 -1 1 1 140 42 1 43 25;
#X restore 603 118 pd volumes;
#X obj 290 243 canvas.dir;
#X obj 290 267 symbol;
#X obj 290 293 string;
#X obj 323 393 list.length;
#X obj 291 343 list append;
#X obj 323 418 t f f;
#X obj 350 445 - 1;
#X obj 322 445 - 2;
#X obj 267 475 list.at;
#X obj 265 503 str->sym;
#X obj 329 477 list.at;
#X obj 333 503 str->sym;
#X obj 289 186 loadbang;
#X text 478 249 This hidden part locate the current patch;
#X text 480 279 and store it into 2 value :;
#X text 480 310 1 canvas_folder = "machine" or "exemple";
#X text 480 331 2 canvas_index = 1 2 3 ..etc;
#X obj 264 188 bng 15 250 50 0 empty empty empty 17 7 0 10 -262144
-1 -1;
#X obj 264 616 s patch_folder;
#X obj 291 365 t l l l;
#X obj 265 530 pack s s;
#X msg 265 555 ../../\$1/\$2;
#X obj 265 582 symbol;
#X obj 291 319 string.split;
#X msg 343 291 @sep \$1;
#X msg 380 240 /;
#X obj 343 267 symbol;
#X obj 289 211 t b b;
#X connect 4 0 5 0;
#X connect 5 0 6 0;
#X connect 6 0 27 0;
#X connect 7 0 9 0;
#X connect 8 0 23 0;
#X connect 9 0 11 0;
#X connect 9 1 10 0;
#X connect 10 0 14 1;
#X connect 11 0 12 1;
#X connect 12 0 13 0;
#X connect 13 0 24 0;
#X connect 14 0 15 0;
#X connect 15 0 24 1;
#X connect 16 0 31 0;
#X connect 21 0 4 0;
#X connect 23 0 12 0;
#X connect 23 1 14 0;
#X connect 23 2 7 0;
#X connect 24 0 25 0;
#X connect 25 0 26 0;
#X connect 26 0 22 0;
#X connect 27 0 8 0;
#X connect 28 0 27 0;
#X connect 29 0 30 0;
#X connect 30 0 28 0;
#X connect 31 0 4 0;
#X connect 31 1 29 0;
#X coords 0 -1 1 1 682 82 1 100 100;
