#N canvas 381 133 865 650 10;
#X obj 201 201 cnv 15 198 30 empty empty led_song 20 12 0 14 -233017
-66577 0;
#X obj 208 428 t b f;
#X obj 208 475 s arduinoIN;
#X obj 211 238 hradio 15 1 0 12 empty empty empty 0 -8 0 10 -262144
-1 -1 3;
#X obj 211 40 extra/sv song;
#X floatatom 211 71 5 0 0 0 - - -;
#X obj 211 97 - 1;
#X obj 211 273 + 1;
#X obj 306 289 change;
#X obj 307 312 bang;
#X msg 307 335 1;
#X msg 353 356 0;
#X obj 304 381 f 1;
#X obj 353 336 delay 5000;
#X obj 305 476 outlet;
#X text 356 479 bang when idle after 5 sec;
#X obj 304 420 sel 0;
#X obj 33 242 r loadsong;
#X obj 121 242 r save_song;
#X obj 208 451 pack 4 1 1 0;
#X obj 124 296 f 0;
#X obj 32 296 f 0;
#X obj 124 335 t b f;
#X obj 124 358 pack 4 1 1 2;
#X obj 32 334 t b f;
#X obj 32 357 pack 4 1 1 1;
#X connect 1 0 19 0;
#X connect 1 1 19 1;
#X connect 3 0 7 0;
#X connect 3 0 8 0;
#X connect 4 0 5 0;
#X connect 5 0 6 0;
#X connect 6 0 3 0;
#X connect 7 0 1 0;
#X connect 7 0 20 1;
#X connect 7 0 21 1;
#X connect 8 0 9 0;
#X connect 9 0 10 0;
#X connect 9 0 13 0;
#X connect 10 0 12 0;
#X connect 11 0 12 0;
#X connect 12 0 16 0;
#X connect 13 0 11 0;
#X connect 16 0 14 0;
#X connect 17 0 21 0;
#X connect 18 0 20 0;
#X connect 19 0 2 0;
#X connect 20 0 22 0;
#X connect 21 0 24 0;
#X connect 22 0 23 0;
#X connect 22 1 23 1;
#X connect 24 0 25 0;
#X connect 24 1 25 1;
#X coords 0 -1 1 1 200 60 2 200 200;
