#N canvas 373 49 969 604 10;
#X obj 26 -40 extra/sv \$1_\$2_loop_ledrec;
#X obj 208 302 t b f;
#X obj 213 421 s arduinoIN;
#X obj 201 201 cnv 15 78 30 empty empty led_mono 2 12 0 14 -233017
-66577 0;
#X floatatom 208 239 5 0 0 0 - - -;
#X obj 364 91 extra/sv \$1_\$2_is_loop_recorded;
#X obj 208 336 pack 1 \$1 0 f;
#X obj 26 -14 sel 1 0;
#X msg 27 176 2;
#X msg 467 172 7;
#X obj 395 396 r \$1_\$2_realstart_first;
#X obj 395 431 r \$1_\$2_realstart_first_with_tempo;
#X obj 392 457 r \$1_\$2_realstart_overdub;
#X obj 290 20 extra/sv \$1_\$2_is_loop_playing;
#X obj 467 59 sel 1 0;
#X obj 295 -24 bng 15 250 50 0 empty empty empty 17 7 0 10 -262144
-1 -1;
#X obj 164 91 extra/sv \$1_\$2_is_loop_recording;
#X obj 290 61 sel 1 0;
#X obj 353 145 sel 0;
#X text 476 153 green;
#X text 41 155 red;
#X msg 45 130 0;
#X obj 164 116 sel 0;
#X obj 296 -69 extra/sv \$1_\$2_is_loop_recording;
#X obj 296 -44 sel 0;
#X obj 636 140 tgl 15 0 empty empty empty 17 7 0 10 -262144 -1 -1 1
1;
#X msg 610 53 bang;
#X msg 672 51 stop;
#X obj 628 -19 sel 1;
#X obj 679 2 t b b;
#X msg 704 135 1;
#X obj 636 111 metro 100;
#X obj 628 -72 extra/sv \$1_\$2_is_loop_waitforplay;
#X text 540 146 comment;
#X obj 636 190 * 7;
#X obj 290 41 t f b;
#X obj 636 167 f;
#X obj 548 189 * 3;
#X connect 0 0 7 0;
#X connect 1 0 6 0;
#X connect 1 1 6 3;
#X connect 4 0 1 0;
#X connect 5 1 37 0;
#X connect 6 0 2 0;
#X connect 7 0 8 0;
#X connect 7 1 21 0;
#X connect 8 0 4 0;
#X connect 9 0 4 0;
#X connect 13 0 35 0;
#X connect 13 1 14 0;
#X connect 14 0 9 0;
#X connect 14 1 5 2;
#X connect 15 0 13 2;
#X connect 16 0 22 0;
#X connect 16 1 18 0;
#X connect 17 0 16 2;
#X connect 17 1 5 2;
#X connect 18 0 9 0;
#X connect 21 0 4 0;
#X connect 23 0 24 0;
#X connect 24 0 15 0;
#X connect 25 0 36 0;
#X connect 26 0 31 0;
#X connect 27 0 31 0;
#X connect 28 0 26 0;
#X connect 28 1 29 0;
#X connect 29 0 27 0;
#X connect 29 1 30 0;
#X connect 30 0 36 0;
#X connect 31 0 25 0;
#X connect 32 0 28 0;
#X connect 34 0 4 0;
#X connect 35 0 17 0;
#X connect 35 1 27 0;
#X connect 36 0 34 0;
#X connect 37 0 4 0;
#X coords 0 -1 1 1 80 60 2 200 200;
