#N canvas 954 131 865 650 10;
#X obj 201 201 cnv 15 198 30 empty empty led_selection 20 12 0 14 -233017
-66577 0;
#X obj 193 -108 extra/sv module_selected;
#X obj 203 239 tgl 15 0 empty empty empty 17 7 0 10 -262144 -1 -1 0
1;
#X obj 218 239 tgl 15 0 empty empty empty 17 7 0 10 -262144 -1 -1 0
1;
#X obj 233 239 tgl 15 0 empty empty empty 17 7 0 10 -262144 -1 -1 0
1;
#X obj 248 239 tgl 15 0 empty empty empty 17 7 0 10 -262144 -1 -1 0
1;
#X obj 263 239 tgl 15 0 empty empty empty 17 7 0 10 -262144 -1 -1 0
1;
#X obj 278 239 tgl 15 0 empty empty empty 17 7 0 10 -262144 -1 -1 0
1;
#X obj 293 239 tgl 15 0 empty empty empty 17 7 0 10 -262144 -1 -1 0
1;
#X obj 308 239 tgl 15 0 empty empty empty 17 7 0 10 -262144 -1 -1 0
1;
#X obj 323 239 tgl 15 0 empty empty empty 17 7 0 10 -262144 -1 -1 0
1;
#X obj 338 239 tgl 15 0 empty empty empty 17 7 0 10 -262144 -1 -1 0
1;
#X obj 353 239 tgl 15 0 empty empty empty 17 7 0 10 -262144 -1 -1 0
1;
#X obj 368 239 tgl 15 0 empty empty empty 17 7 0 10 -262144 -1 -1 0
1;
#X obj 193 -78 extra/compute_selection 1;
#X obj 205 -59 extra/compute_selection 2;
#X obj 220 -41 extra/compute_selection 3;
#X obj 232 -22 extra/compute_selection 4;
#X obj 262 -3 extra/compute_selection 5;
#X obj 274 16 extra/compute_selection 6;
#X obj 289 35 extra/compute_selection 7;
#X obj 301 53 extra/compute_selection 8;
#X obj 330 73 extra/compute_selection 9;
#X obj 342 92 extra/compute_selection 10;
#X obj 357 110 extra/compute_selection 11;
#X obj 369 129 extra/compute_selection 12;
#X obj 203 296 pack 3 1 1 f;
#X obj 203 277 t b f;
#X obj 184 777 s arduinoIN;
#X obj 221 315 t b f;
#X obj 245 353 t b f;
#X obj 285 433 t b f;
#X obj 309 471 t b f;
#X obj 349 549 t b f;
#X obj 373 587 t b f;
#X obj 405 667 t b f;
#X obj 429 705 t b f;
#X obj 221 334 pack 3 2 1 f;
#X obj 246 374 pack 3 3 1 f;
#X obj 331 511 t b f;
#X obj 386 627 t b f;
#X obj 267 393 t b f;
#X obj 267 412 pack 3 4 1 f;
#X obj 285 452 pack 3 5 1 f;
#X obj 309 491 pack 3 6 1 f;
#X obj 331 530 pack 3 7 1 f;
#X obj 349 568 pack 3 8 1 f;
#X obj 373 606 pack 3 9 1 f;
#X obj 387 648 pack 3 10 1 f;
#X obj 405 686 pack 3 11 1 f;
#X obj 429 724 pack 3 12 1 f;
#X connect 1 0 14 0;
#X connect 1 0 15 0;
#X connect 1 0 16 0;
#X connect 1 0 17 0;
#X connect 1 0 18 0;
#X connect 1 0 19 0;
#X connect 1 0 20 0;
#X connect 1 0 21 0;
#X connect 1 0 22 0;
#X connect 1 0 23 0;
#X connect 1 0 24 0;
#X connect 1 0 25 0;
#X connect 2 0 27 0;
#X connect 3 0 29 0;
#X connect 4 0 30 0;
#X connect 5 0 41 0;
#X connect 6 0 31 0;
#X connect 7 0 32 0;
#X connect 8 0 39 0;
#X connect 9 0 33 0;
#X connect 10 0 34 0;
#X connect 11 0 40 0;
#X connect 12 0 35 0;
#X connect 13 0 36 0;
#X connect 14 0 2 0;
#X connect 15 0 3 0;
#X connect 16 0 4 0;
#X connect 17 0 5 0;
#X connect 18 0 6 0;
#X connect 19 0 7 0;
#X connect 20 0 8 0;
#X connect 21 0 9 0;
#X connect 22 0 10 0;
#X connect 23 0 11 0;
#X connect 24 0 12 0;
#X connect 25 0 13 0;
#X connect 26 0 28 0;
#X connect 27 0 26 0;
#X connect 27 1 26 3;
#X connect 29 0 37 0;
#X connect 29 1 37 3;
#X connect 30 0 38 0;
#X connect 30 1 38 3;
#X connect 31 0 43 0;
#X connect 31 1 43 3;
#X connect 32 0 44 0;
#X connect 32 1 44 3;
#X connect 33 0 46 0;
#X connect 33 1 46 3;
#X connect 34 0 47 0;
#X connect 34 1 47 3;
#X connect 35 0 49 0;
#X connect 35 1 49 3;
#X connect 36 0 50 0;
#X connect 36 1 50 3;
#X connect 37 0 28 0;
#X connect 38 0 28 0;
#X connect 39 0 45 0;
#X connect 39 1 45 3;
#X connect 40 0 48 0;
#X connect 40 1 48 3;
#X connect 41 0 42 0;
#X connect 41 1 42 3;
#X connect 42 0 28 0;
#X connect 43 0 28 0;
#X connect 44 0 28 0;
#X connect 45 0 28 0;
#X connect 46 0 28 0;
#X connect 47 0 28 0;
#X connect 48 0 28 0;
#X connect 49 0 28 0;
#X connect 50 0 28 0;
#X coords 0 -1 1 1 200 60 2 200 200;
