#N canvas 555 93 821 589 10;
#X obj 28 59 extra/sv \$1_\$2_loop_ledrec;
#X obj 400 58 extra/sv \$1_\$2_loop_ledplay;
#X obj 26 297 t b f;
#X obj 400 281 t b f;
#X obj 229 295 t b f;
#X obj 213 421 s arduinoIN;
#X obj 26 331 pack 2 \$1 0 f;
#X obj 229 329 pack 2 \$1 1 f;
#X obj 400 315 pack 2 \$1 2 f;
#X obj 201 201 cnv 15 148 30 empty empty led_breakbeat 20 12 0 14 -233017
-66577 0;
#X floatatom 208 239 5 0 0 0 - - -;
#X floatatom 247 239 5 0 0 0 - - -;
#X floatatom 293 239 5 0 0 0 - - -;
#X obj 399 114 sel 0;
#X msg 398 145 0;
#X msg 433 146 7;
#X obj 26 91 sel 0;
#X msg 26 116 0;
#X msg 60 115 2;
#X obj 230 10 extra/sv module_selected;
#X obj 230 32 extra/compute_selection \$1;
#X obj 229 83 sel 0;
#X msg 228 116 0;
#X msg 259 117 3;
#X connect 0 0 16 0;
#X connect 1 0 13 0;
#X connect 2 0 6 0;
#X connect 2 1 6 3;
#X connect 3 0 8 0;
#X connect 3 1 8 3;
#X connect 4 0 7 0;
#X connect 4 1 7 3;
#X connect 6 0 5 0;
#X connect 7 0 5 0;
#X connect 8 0 5 0;
#X connect 10 0 2 0;
#X connect 11 0 4 0;
#X connect 12 0 3 0;
#X connect 13 0 14 0;
#X connect 13 1 15 0;
#X connect 14 0 12 0;
#X connect 15 0 12 0;
#X connect 16 0 17 0;
#X connect 16 1 18 0;
#X connect 17 0 10 0;
#X connect 18 0 10 0;
#X connect 19 0 20 0;
#X connect 20 0 21 0;
#X connect 21 0 22 0;
#X connect 21 1 23 0;
#X connect 22 0 11 0;
#X connect 23 0 11 0;
#X coords 0 -1 1 1 150 60 2 200 200;
