#N canvas 272 121 821 589 10;
#X obj 233 276 t b f;
#X obj 233 334 s arduinoIN;
#X obj 201 201 cnv 15 88 30 empty empty led_sampler 1 12 0 14 -233017
-66577 0;
#X floatatom 233 238 5 0 0 0 - - -;
#X obj 225 140 sel 0;
#X msg 225 165 0;
#X obj 225 117 extra/sv \$1_\$2_loop_playsampler;
#X msg 259 164 3;
#X obj 233 310 pack 1 \$1 0 f;
#X connect 0 0 8 0;
#X connect 0 1 8 3;
#X connect 3 0 0 0;
#X connect 4 0 5 0;
#X connect 4 1 7 0;
#X connect 5 0 3 0;
#X connect 6 0 4 0;
#X connect 7 0 3 0;
#X connect 8 0 1 0;
#X coords 0 -1 1 1 90 60 2 200 200;
