#N canvas 635 210 542 501 12;
#X declare -path ../../patches;
#X obj 174 286 vstplugin~ 0 2;
#X obj 175 256 r \$0-msg;
#X obj 179 339 dac~;
#N canvas 0 54 992 228 midi-forward 0;
#X floatatom 365 24 0 0 0 0 - - -;
#X obj 346 -27 notein;
#X floatatom 346 47 0 0 0 0 - - -;
#X floatatom 385 -1 0 0 0 0 - - -;
#X text 395 25 velocity;
#X text 414 1 channel;
#X text 396 -28 (omni);
#X text 376 47 note;
#X obj 344 83 pack f f f;
#X msg 341 119 midi_note \$3 \$1 \$2;
#X msg 513 59 127;
#X msg 545 59 0;
#X text 572 60 (sustain pedal on/off);
#X obj 575 -24 ctlin 1 2;
#X floatatom 576 8 0 0 0 0 - - -;
#X text 605 10 channel;
#X msg 513 92 midi_cc 1 1 \$1;
#X obj 430 173 s \$0-msg;
#X connect 0 0 8 1;
#X connect 1 0 2 0;
#X connect 1 1 0 0;
#X connect 1 2 3 0;
#X connect 2 0 8 0;
#X connect 3 0 8 2;
#X connect 8 0 9 0;
#X connect 9 0 17 0;
#X connect 10 0 16 0;
#X connect 11 0 16 0;
#X connect 13 0 14 0;
#X connect 14 0 16 0;
#X connect 16 0 17 0;
#X restore 31 104 pd midi-forward;
#N canvas 512 360 450 300 tempo 0;
#X msg 230 105 tempo \$1;
#X floatatom 230 80 4 0 0 0 - - -;
#X obj 230 28 extra/sv tempo;
#X obj 230 54 extra/period_to_tempo;
#X obj 158 206 s \$0-msg;
#X msg 7 39 play \$1;
#X obj 7 18 tgl 15 0 empty empty empty 17 7 0 10 -262144 -1 -1 0 1
;
#X obj 279 165 nbx 5 14 -1e+37 1e+37 0 0 empty empty empty 0 -8 0 10
-262144 -1 -1 0 256;
#X msg 279 183 transport_set \$1;
#X text 66 38 start/stop sequencing;
#X text 275 205 set transport position (1.0 = one quarter note)*;
#X obj 7 -9 extra/sv tempo_isplaying;
#X connect 0 0 4 0;
#X connect 1 0 0 0;
#X connect 2 0 3 0;
#X connect 3 0 1 0;
#X connect 5 0 4 0;
#X connect 6 0 5 0;
#X connect 7 0 8 0;
#X connect 11 0 6 0;
#X restore 82 131 pd tempo;
#X obj 7 365 declare -path ../../patches;
#X msg 236 258 vis \$1;
#X obj 236 218 tgl 35 0 empty empty empty 17 7 0 10 -4034 -1 -1 0 1
;
#N canvas 80 203 954 723 preset 0;
#X obj 261 300 unpack s f;
#X obj 514 319 extra/sv current_preset;
#X obj 46 29 hradio 70 1 0 8 empty empty empty 0 -8 0 10 -262144 -1
-1 0;
#X obj -128 63 extra/sv current_preset;
#X msg -128 90 set \$1;
#X msg 127 109 helm 1;
#X msg 56 109 helm 0;
#X msg 189 109 hybrid 2;
#X msg 260 109 hybrid 3;
#X msg 330 109 arcade 4;
#X msg 402 110 arcade 5;
#X msg 470 110 arcade 6;
#X msg 540 110 arcade 7;
#X obj 261 443 route arcade;
#X obj 261 387 pack s f;
#X obj 261 359 t s s;
#X obj 261 415 list trim;
#X obj 342 483 unpack s f;
#X obj 390 536 f 0;
#X obj 342 509 t b s;
#X msg 374 597 open -e \$1;
#X msg 261 618 preset_load \$1 0;
#X obj 373 655 s \$0-msg;
#X obj 624 46 bng 45 250 50 0 empty empty empty 17 7 0 10 -258113 -1
-1;
#X msg 672 376 preset_save \$1 0;
#X obj 672 402 s \$0-msg;
#X obj 672 345 makefilename preset%d;
#X obj 261 569 makefilename preset%d;
#N canvas 0 23 450 300 presetFromPad 0;
#X floatatom 92 74 0 0 0 0 - - -;
#X floatatom 76 103 0 0 0 0 - - -;
#X floatatom 108 41 0 0 0 0 - - -;
#X obj 76 16 ctlin;
#X text 107 104 value;
#X text 120 15 (all controllers \, omni);
#X text 123 74 controller #;
#X obj 76 127 > 0;
#X obj 77 157 sel 1;
#X obj 78 215 f;
#X obj 78 187 bang;
#X obj 78 246 outlet;
#X connect 0 0 9 1;
#X connect 1 0 7 0;
#X connect 3 0 1 0;
#X connect 3 1 0 0;
#X connect 3 2 2 0;
#X connect 7 0 8 0;
#X connect 8 0 10 0;
#X connect 9 0 11 0;
#X connect 10 0 9 0;
#X restore 279 -40 pd presetFromPad;
#X obj 279 -15 sel 20 21 22 23 24 25 26 27 28;
#X obj 485 668 outlet;
#X msg 488 597 set \$1;
#X obj 505 533 noteout;
#X obj 505 507 unpack f f f;
#X obj 514 345 t b f;
#X obj 527 406 f 0;
#X obj 514 374 delay 500;
#X obj 505 482 pack f 127 1;
#X obj 527 430 + 9;
#N canvas 745 227 450 300 reset_all 0;
#X msg 67 95 9 0 1;
#X msg 112 95 10 0 1;
#X msg 166 95 9 0 1;
#X msg 212 95 11 0 1;
#X msg 266 95 12 0 1;
#X msg 311 95 13 0 1;
#X msg 365 95 14 0 1;
#X msg 411 95 15 0 1;
#X obj 77 57 t b b b b b b b b;
#X obj 66 136 outlet;
#X obj 77 22 inlet;
#X connect 0 0 9 0;
#X connect 1 0 9 0;
#X connect 2 0 9 0;
#X connect 3 0 9 0;
#X connect 4 0 9 0;
#X connect 5 0 9 0;
#X connect 6 0 9 0;
#X connect 7 0 9 0;
#X connect 8 0 0 0;
#X connect 8 1 1 0;
#X connect 8 2 2 0;
#X connect 8 3 3 0;
#X connect 8 4 4 0;
#X connect 8 5 5 0;
#X connect 8 6 6 0;
#X connect 8 7 7 0;
#X connect 10 0 8 0;
#X restore 600 483 pd reset_all;
#X obj 527 452 t f b;
#X obj 635 539 print;
#X floatatom 475 404 5 0 0 0 - - -;
#X connect 0 0 15 0;
#X connect 0 1 1 1;
#X connect 0 1 14 1;
#X connect 1 0 34 0;
#X connect 1 1 26 0;
#X connect 2 0 3 1;
#X connect 3 0 4 0;
#X connect 4 0 2 0;
#X connect 5 0 0 0;
#X connect 6 0 0 0;
#X connect 7 0 0 0;
#X connect 8 0 0 0;
#X connect 9 0 0 0;
#X connect 10 0 0 0;
#X connect 11 0 0 0;
#X connect 12 0 0 0;
#X connect 13 0 27 0;
#X connect 13 1 17 0;
#X connect 14 0 16 0;
#X connect 15 0 13 1;
#X connect 15 1 14 0;
#X connect 16 0 13 0;
#X connect 17 0 19 0;
#X connect 17 1 18 1;
#X connect 18 0 27 0;
#X connect 19 0 18 0;
#X connect 19 1 20 0;
#X connect 19 1 31 0;
#X connect 20 0 22 0;
#X connect 21 0 22 0;
#X connect 23 0 1 2;
#X connect 24 0 25 0;
#X connect 26 0 24 0;
#X connect 27 0 21 0;
#X connect 28 0 29 0;
#X connect 29 0 6 0;
#X connect 29 1 5 0;
#X connect 29 2 7 0;
#X connect 29 3 8 0;
#X connect 29 4 9 0;
#X connect 29 5 10 0;
#X connect 29 6 11 0;
#X connect 31 0 30 0;
#X connect 33 0 32 0;
#X connect 33 0 41 0;
#X connect 33 1 32 1;
#X connect 33 2 32 2;
#X connect 34 0 36 0;
#X connect 34 1 35 1;
#X connect 35 0 38 0;
#X connect 36 0 35 0;
#X connect 37 0 33 0;
#X connect 38 0 40 0;
#X connect 39 0 33 0;
#X connect 40 0 37 0;
#X connect 40 1 39 0;
#X connect 42 0 38 0;
#X restore 271 115 pd preset;
#X obj 173 174 hradio 35 1 0 8 empty empty empty 0 -8 0 10 -262144
-1 -1 0;
#X obj -34 180 extra/sv current_preset;
#X floatatom 177 144 5 0 0 0 - - -;
#X msg 4 208 set \$1;
#X symbolatom 271 142 10 0 0 0 - - -;
#X obj 13 12 cnv 15 400 60 empty empty SYNTH-mpkMINI 20 12 0 18 -4032
-66577 0;
#X connect 0 0 2 0;
#X connect 0 1 2 1;
#X connect 1 0 0 0;
#X connect 6 0 0 0;
#X connect 7 0 6 0;
#X connect 8 0 13 0;
#X connect 9 0 10 1;
#X connect 10 0 11 0;
#X connect 10 0 12 0;
#X connect 12 0 9 0;
