#N canvas 65 35 1280 624 10;
#X declare -path ../../patches;
#X declare -lib ceammc;
#X obj 4 101 cnv 15 144 259 empty empty empty 20 12 0 14 -233017 -66577
0;
#N canvas 462 173 1151 709 patch 1;
#X obj 101 101 cnv 15 138 40 empty empty PATCH 20 12 0 14 -66577 -262144
0;
#X obj 328 55 adc~;
#X obj 402 331 *~ 1;
#X obj 395 393 dac~;
#X obj 38 100 bng 35 250 50 0 empty empty CLOSE 4 20 0 10 -262144 -1
-1;
#X msg 38 164 \; pd-patch vis 0;
#N canvas 447 412 1038 529 open 0;
#X text 462 314 label-color;
#X text 477 339 label-color;
#X obj 377 311 t b f;
#X msg 400 277 2;
#X obj 466 220 loadbang;
#X obj 104 101 hradio 15 1 0 2 empty empty empty 0 -8 0 10 -262144
-1 -1 0;
#X obj 104 166 bang;
#X msg 363 277 43;
#X obj 101 101 cnv 15 38 15 empty \$0_opencnv open 6 8 0 10 -66577
-262144 0;
#X msg 405 398 \; \$4_opencnv color \$1 \$2 \$3;
#X obj 363 197 bang;
#X obj 404 365 pack 43 0 0 \$0;
#X obj 400 220 delay 200;
#X msg 101 247 \; pd-patch vis 1;
#X msg 614 289 \; pd-patch vis 0;
#X connect 2 1 11 0;
#X connect 3 0 2 0;
#X connect 4 0 3 0;
#X connect 4 0 14 0;
#X connect 5 0 6 0;
#X connect 6 0 10 0;
#X connect 6 0 13 0;
#X connect 7 0 2 0;
#X connect 10 0 7 0;
#X connect 10 0 12 0;
#X connect 11 0 9 0;
#X connect 12 0 3 0;
#X coords 0 -1 1 1 40 17 2 100 100;
#X restore 177 107 pd open;
#X obj 324 178 *~ 1;
#X obj 572 277 effect/delay;
#X obj 41 208 declare -path ../../patches;
#X text 39 39 comment;
#X text 39 39 comment;
#X obj 49 365 r loadsong;
#X obj 49 390 s tempoGoIn;
#X obj 17 643 extra/multiple_selection_manager;
#N canvas 786 198 692 514 play_led_nanoKontrol 0;
#X floatatom 349 344 5 0 0 0 - - -;
#X floatatom 386 344 5 0 0 0 - - -;
#X floatatom 425 343 5 0 0 0 - - -;
#X obj 357 311 ctlin;
#X floatatom 59 428 3 0 0 0 - - -;
#X floatatom 94 429 2 0 0 0 - - -;
#X obj 51 457 ctlout;
#X text 373 400 value;
#X text 384 423 controller #;
#X obj 19 162 pack f 48 1;
#X obj 59 118 * 127;
#X obj 77 138 * 127;
#X obj 95 157 * 127;
#X obj 114 177 * 127;
#X obj 127 201 * 127;
#X obj 145 221 * 127;
#X obj 163 240 * 127;
#X obj 182 260 * 127;
#X obj 33 180 pack f 49 1;
#X obj 47 200 pack f 50 1;
#X obj 61 220 pack f 51 1;
#X obj 78 241 pack f 52 1;
#X obj 92 259 pack f 53 1;
#X obj 106 279 pack f 54 1;
#X obj 120 297 pack f 55 1;
#X floatatom 25 429 3 0 0 0 - - -;
#X obj 25 388 unpack f f f;
#X obj 63 76 extra/sv 1_1_loop_ledplay;
#X obj 81 97 extra/sv 2_1_loop_ledplay;
#X obj 99 118 extra/sv 3_1_loop_ledplay;
#X obj 116 139 extra/sv 4_1_loop_ledplay;
#X obj 134 158 extra/sv 5_1_loop_ledplay;
#X obj 151 179 extra/sv 6_1_loop_ledplay;
#X obj 170 200 extra/sv 7_1_loop_ledplay;
#X obj 187 221 extra/sv 8_1_loop_ledplay;
#X connect 3 0 0 0;
#X connect 3 1 1 0;
#X connect 3 2 2 0;
#X connect 4 0 6 1;
#X connect 5 0 6 2;
#X connect 9 0 26 0;
#X connect 10 0 9 0;
#X connect 11 0 18 0;
#X connect 12 0 19 0;
#X connect 13 0 20 0;
#X connect 14 0 21 0;
#X connect 15 0 22 0;
#X connect 16 0 23 0;
#X connect 17 0 24 0;
#X connect 18 0 26 0;
#X connect 19 0 26 0;
#X connect 20 0 26 0;
#X connect 21 0 26 0;
#X connect 22 0 26 0;
#X connect 23 0 26 0;
#X connect 24 0 26 0;
#X connect 25 0 6 0;
#X connect 26 0 25 0;
#X connect 26 1 4 0;
#X connect 26 2 5 0;
#X connect 27 0 10 0;
#X connect 28 0 11 0;
#X connect 29 0 12 0;
#X connect 30 0 13 0;
#X connect 31 0 14 0;
#X connect 32 0 15 0;
#X connect 33 0 16 0;
#X connect 34 0 17 0;
#X restore 692 543 pd play_led_nanoKontrol;
#N canvas 408 299 864 508 select_led_nanoKontrol 0;
#X obj 117 237 extra/sv module_selected;
#X obj 117 354 & 2;
#X obj 183 354 & 4;
#X floatatom 319 581 3 0 0 0 - - -;
#X floatatom 357 581 3 0 0 0 - - -;
#X floatatom 392 581 2 0 0 0 - - -;
#X text 409 581 channel;
#X text 347 561 velocity;
#X obj 354 532 unpack f f f;
#X obj 334 609 ctlout;
#X floatatom 60 288 5 0 0 0 - - -;
#X obj 117 382 sel 0;
#X obj 182 381 sel 0;
#X msg 144 426 127 32 1;
#X msg 117 402 0 32 1;
#X obj 251 379 sel 0;
#X obj 326 378 sel 0;
#X obj 251 354 & 8;
#X obj 326 354 & 16;
#X msg 181 403 0 33 1;
#X msg 251 399 0 34 1;
#X msg 326 399 0 35 1;
#X msg 209 426 127 33 1;
#X msg 278 426 127 34 1;
#X msg 353 426 127 35 1;
#X obj 394 379 sel 0;
#X obj 459 378 sel 0;
#X obj 528 376 sel 0;
#X obj 603 375 sel 0;
#X msg 394 399 0 36 1;
#X msg 458 400 0 37 1;
#X msg 528 396 0 38 1;
#X msg 603 396 0 39 1;
#X msg 422 426 127 36 1;
#X msg 486 426 127 37 1;
#X msg 555 426 127 38 1;
#X msg 630 426 127 39 1;
#X obj 394 351 & 32;
#X obj 460 351 & 64;
#X obj 528 351 & 128;
#X obj 603 351 & 256;
#X connect 0 0 1 0;
#X connect 0 0 2 0;
#X connect 0 0 10 0;
#X connect 0 0 17 0;
#X connect 0 0 18 0;
#X connect 0 0 37 0;
#X connect 0 0 38 0;
#X connect 0 0 39 0;
#X connect 0 0 40 0;
#X connect 1 0 11 0;
#X connect 2 0 12 0;
#X connect 3 0 9 0;
#X connect 4 0 9 1;
#X connect 5 0 9 2;
#X connect 8 0 3 0;
#X connect 8 1 4 0;
#X connect 8 2 5 0;
#X connect 11 0 14 0;
#X connect 11 1 13 0;
#X connect 12 0 19 0;
#X connect 12 1 22 0;
#X connect 13 0 8 0;
#X connect 14 0 8 0;
#X connect 15 0 20 0;
#X connect 15 1 23 0;
#X connect 16 0 21 0;
#X connect 16 1 24 0;
#X connect 17 0 15 0;
#X connect 18 0 16 0;
#X connect 19 0 8 0;
#X connect 20 0 8 0;
#X connect 21 0 8 0;
#X connect 22 0 8 0;
#X connect 23 0 8 0;
#X connect 24 0 8 0;
#X connect 25 0 29 0;
#X connect 25 1 33 0;
#X connect 26 0 30 0;
#X connect 26 1 34 0;
#X connect 27 0 31 0;
#X connect 27 1 35 0;
#X connect 28 0 32 0;
#X connect 28 1 36 0;
#X connect 29 0 8 0;
#X connect 30 0 8 0;
#X connect 31 0 8 0;
#X connect 32 0 8 0;
#X connect 33 0 8 0;
#X connect 34 0 8 0;
#X connect 35 0 8 0;
#X connect 36 0 8 0;
#X connect 37 0 25 0;
#X connect 38 0 26 0;
#X connect 39 0 27 0;
#X connect 40 0 28 0;
#X restore 692 563 pd select_led_nanoKontrol;
#N canvas 381 150 537 404 global_with_no_selection 0;
#X obj 327 87 extra/sv module_selected;
#X obj 102 90 tgl 15 0 empty empty empty 17 7 0 10 -262144 -1 -1 0
1;
#X obj 102 70 extra/sv global_play;
#X obj 210 257 extra/sv tempo_isplaying;
#X obj 102 110 sel 0;
#X obj 329 134 tgl 15 0 empty empty empty 17 7 0 10 -262144 -1 -1 0
1;
#X obj 215 180 spigot;
#X obj 328 110 == 0;
#X obj 210 356 s tempoStopIn;
#X obj 295 358 s tempoGoIn;
#X obj 210 312 sel 1 0;
#X connect 0 0 7 0;
#X connect 1 0 4 0;
#X connect 2 0 1 0;
#X connect 3 1 10 0;
#X connect 4 0 6 0;
#X connect 5 0 6 1;
#X connect 6 0 3 2;
#X connect 7 0 5 0;
#X connect 10 0 8 0;
#X connect 10 1 9 0;
#X restore 691 520 pd global_with_no_selection;
#X obj 675 471 extra/sv song_mode;
#X msg 707 447 1;
#X obj 707 426 loadbang;
#X text 768 424 allow song to be changed whenever load button is clicked
;
#X obj 445 330 *~ 1;
#X obj 40 228 declare -lib ceammc;
#X obj 378 234 audio/8loop 0 0 2 1 1 0;
#X obj 432 270 effect/reverb;
#X obj 311 113 audio/mic;
#X obj 41 331 audio/tempo;
#X obj 297 489 arduino/led_loop_selection;
#N canvas 786 198 692 514 play_rec_nanoKontrol 0;
#X floatatom 349 344 5 0 0 0 - - -;
#X floatatom 386 344 5 0 0 0 - - -;
#X floatatom 425 343 5 0 0 0 - - -;
#X obj 357 311 ctlin;
#X floatatom 59 428 3 0 0 0 - - -;
#X floatatom 94 429 2 0 0 0 - - -;
#X obj 51 457 ctlout;
#X text 373 400 value;
#X text 384 423 controller #;
#X obj 59 118 * 127;
#X obj 77 138 * 127;
#X obj 95 157 * 127;
#X obj 114 177 * 127;
#X obj 127 201 * 127;
#X obj 145 221 * 127;
#X obj 163 240 * 127;
#X floatatom 25 429 3 0 0 0 - - -;
#X obj 25 388 unpack f f f;
#X obj 19 162 pack f 64 1;
#X obj 33 180 pack f 65 1;
#X obj 47 200 pack f 66 1;
#X obj 61 220 pack f 67 1;
#X obj 78 241 pack f 68 1;
#X obj 91 259 pack f 69 1;
#X obj 106 279 pack f 70 1;
#X obj 63 76 extra/sv 1_1_loop_ledrec;
#X obj 81 97 extra/sv 2_1_loop_ledrec;
#X obj 99 118 extra/sv 3_1_loop_ledrec;
#X obj 116 139 extra/sv 4_1_loop_ledrec;
#X obj 134 158 extra/sv 5_1_loop_ledrec;
#X obj 151 179 extra/sv 6_1_loop_ledrec;
#X obj 170 200 extra/sv 7_1_loop_ledrec;
#X obj 187 221 extra/sv 8_1_loop_ledrec;
#X connect 3 0 0 0;
#X connect 3 1 1 0;
#X connect 3 2 2 0;
#X connect 4 0 6 1;
#X connect 5 0 6 2;
#X connect 9 0 18 0;
#X connect 10 0 19 0;
#X connect 11 0 20 0;
#X connect 12 0 21 0;
#X connect 13 0 22 0;
#X connect 14 0 23 0;
#X connect 15 0 24 0;
#X connect 16 0 6 0;
#X connect 17 0 16 0;
#X connect 17 1 4 0;
#X connect 17 2 5 0;
#X connect 18 0 17 0;
#X connect 19 0 17 0;
#X connect 20 0 17 0;
#X connect 21 0 17 0;
#X connect 22 0 17 0;
#X connect 23 0 17 0;
#X connect 24 0 17 0;
#X connect 25 0 9 0;
#X connect 26 0 10 0;
#X connect 27 0 11 0;
#X connect 28 0 12 0;
#X connect 29 0 13 0;
#X connect 30 0 14 0;
#X connect 31 0 15 0;
#X restore 695 581 pd play_rec_nanoKontrol;
#X connect 1 0 26 0;
#X connect 1 1 26 0;
#X connect 2 0 3 0;
#X connect 4 0 5 0;
#X connect 7 0 3 0;
#X connect 7 0 3 1;
#X connect 7 0 24 0;
#X connect 8 0 2 0;
#X connect 8 0 22 0;
#X connect 19 0 18 1;
#X connect 20 0 19 0;
#X connect 22 0 3 1;
#X connect 24 0 2 0;
#X connect 24 0 22 0;
#X connect 24 1 25 0;
#X connect 24 2 8 0;
#X connect 25 0 2 0;
#X connect 25 1 22 0;
#X connect 26 1 7 0;
#X connect 26 2 25 0;
#X connect 26 3 8 0;
#X coords 0 -1 1 1 140 42 2 100 100;
#X restore 6 138 pd patch;
#N canvas 219 206 1141 592 connect 1;
#X obj 40 6 cnv 15 996 83 empty empty CONNECT 330 30 0 45 -21525 -88297
0;
#X obj 44 26 cnv 15 138 40 empty empty CONNECT 20 12 0 14 -66577 -262144
0;
#N canvas 402 288 1038 552 open 0;
#X obj 103 102 hradio 15 0 0 3 empty empty empty 0 -8 0 10 -262144
-1 -1 1;
#X text 462 314 label-color;
#X text 477 339 label-color;
#X obj 377 311 t b f;
#X msg 400 277 2;
#X obj 466 220 loadbang;
#X obj 104 166 bang;
#X msg 363 277 43;
#X obj 363 197 bang;
#X obj 404 365 pack 43 0 0 \$0;
#X obj 400 220 delay 200;
#X msg 104 202 \; pd-connect vis 1;
#X msg 405 398 \; \$4_connectcnv color \$1 \$2 \$3;
#X obj 101 101 cnv 15 47 15 empty \$0_connectcnv open 14 6 0 10 -66577
-262144 0;
#X obj 594 296 bang;
#X msg 594 332 \; pd-connect vis 0;
#X connect 0 0 6 0;
#X connect 3 1 9 0;
#X connect 4 0 3 0;
#X connect 5 0 4 0;
#X connect 5 0 14 0;
#X connect 6 0 8 0;
#X connect 6 0 11 0;
#X connect 7 0 3 0;
#X connect 8 0 7 0;
#X connect 8 0 10 0;
#X connect 9 0 12 0;
#X connect 10 0 4 0;
#X connect 14 0 15 0;
#X coords 0 -1 1 1 49 17 2 100 100;
#X restore 127 47 pd open;
#X obj 40 103 arduino/arduino;
#X obj 236 103 connect/connect_mic;
#X obj 38 159 hardware/midi;
#X obj 37 217 hardware/keyboard;
#X obj 903 114 connect/connect_song;
#X obj 195 329 connect/connect_global_breakbeat;
#X obj 900 327 connect/connect_global_recplay;
#X obj 3 328 connect/connect_global_extra;
#X obj 30 507 connect/connect_loop 1 1;
#X obj 175 507 connect/connect_loop 2 1;
#X obj 320 507 connect/connect_loop 3 1;
#X obj 463 507 connect/connect_loop 4 1;
#X obj 611 507 connect/connect_loop 5 1;
#X obj 757 507 connect/connect_loop 6 1;
#X obj 903 507 connect/connect_loop 7 1;
#X obj 1050 507 connect/connect_loop 8 1;
#X obj 909 69 s connect_clear_all;
#X obj 909 51 bng 15 250 50 0 empty empty CLEAR_ALL 17 7 0 10 -258113
-1 -262144;
#X obj 352 330 connect/connect_global_send;
#X obj 1069 127 externals/osc/packOSC;
#X obj 1069 149 externals/udpsend;
#X msg 1202 110 disconnect;
#X obj 1213 79 sel 0 1;
#X obj 1069 17 receive toOSC;
#X obj 1069 107 list trim;
#X obj 1072 189 tgl 15 0 empty empty empty 17 7 0 10 -262144 -1 -1
0 1;
#X obj 1213 25 tgl 15 0 empty empty empty 17 7 0 10 -262144 -1 -1 0
1;
#X msg 1210 132 connect 127.0.0.1 6666;
#X obj 1069 89 list prepend sendtyped;
#X obj 1070 55 spigot 0;
#X connect 20 0 19 0;
#X connect 22 0 23 0;
#X connect 23 0 28 0;
#X connect 24 0 23 0;
#X connect 25 0 24 0;
#X connect 25 1 30 0;
#X connect 26 0 32 0;
#X connect 27 0 22 0;
#X connect 29 0 25 0;
#X connect 29 0 32 1;
#X connect 30 0 23 0;
#X connect 31 0 27 0;
#X connect 32 0 31 0;
#X coords 0 -1 1 1 140 42 1 43 25;
#X restore 6 191 pd connect;
#N canvas 91 561 721 359 volumes 0;
#X obj 24 -13 cnv 15 650 83 empty empty VOLUMES 330 30 0 45 -21525
-88297 0;
#X obj 44 26 cnv 15 138 40 empty empty VOLUMES 20 12 0 14 -66577 -262144
0;
#N canvas 285 163 1038 575 open 0;
#X obj 103 102 hradio 15 0 0 3 empty empty empty 0 -8 0 10 -262144
-1 -1 0;
#X text 462 314 label-color;
#X text 477 339 label-color;
#X obj 377 311 t b f;
#X msg 400 277 2;
#X obj 466 220 loadbang;
#X obj 104 166 bang;
#X msg 363 277 43;
#X obj 363 197 bang;
#X obj 404 365 pack 43 0 0 \$0;
#X obj 400 220 delay 200;
#X obj 101 101 cnv 15 47 15 empty \$0_volumescnv open 14 6 0 10 -66577
-262144 0;
#X msg 104 202 \; pd-volumes vis 1;
#X msg 405 398 \; \$4_volumescnv color \$1 \$2 \$3;
#X msg 552 270 \; pd-volumes vis 0;
#X connect 0 0 6 0;
#X connect 3 1 9 0;
#X connect 4 0 3 0;
#X connect 5 0 4 0;
#X connect 5 0 14 0;
#X connect 6 0 8 0;
#X connect 6 0 12 0;
#X connect 7 0 3 0;
#X connect 8 0 7 0;
#X connect 8 0 10 0;
#X connect 9 0 13 0;
#X connect 10 0 4 0;
#X coords 0 -1 1 1 49 17 2 100 100;
#X restore 127 47 pd open;
#X obj 209 0 bng 55 250 50 0 save_all empty SAVE 10 25 0 15 -258113
-1 -1;
#X obj 28 80 volume/volume_mic;
#X obj 386 80 volume/volume_reverb;
#X obj 534 80 volume/volume_delay;
#X coords 0 -1 1 1 140 42 1 43 25;
#X restore 8 241 pd volumes;
#X obj 261 121 canvas.dir;
#X obj 261 145 symbol;
#X obj 261 171 string;
#X obj 294 271 list.length;
#X obj 262 221 list append;
#X obj 294 296 t f f;
#X obj 321 323 - 1;
#X obj 293 323 - 2;
#X obj 238 353 list.at;
#X obj 236 381 str->sym;
#X obj 300 355 list.at;
#X obj 304 381 str->sym;
#X obj 260 64 loadbang;
#X text 449 127 This hidden part locate the current patch;
#X text 451 157 and store it into 2 value :;
#X text 451 188 1 canvas_folder = "machine" or "exemple";
#X text 451 209 2 canvas_index = 1 2 3 ..etc;
#X obj 235 66 bng 15 250 50 0 empty empty empty 17 7 0 10 -262144 -1
-1;
#X obj 235 494 s patch_folder;
#X obj 262 243 t l l l;
#X obj 236 408 pack s s;
#X msg 236 433 ../../\$1/\$2;
#X obj 236 460 symbol;
#X obj 94 495 print nogui_dir;
#X msg 351 172 @sep \$1;
#X msg 351 124 /, f 2;
#X obj 351 149 symbol;
#X obj 262 197 string.split;
#X obj 260 93 t b b;
#X connect 4 0 5 0;
#X connect 5 0 6 0;
#X connect 6 0 31 0;
#X connect 7 0 9 0;
#X connect 8 0 23 0;
#X connect 9 0 11 0;
#X connect 9 1 10 0;
#X connect 10 0 14 1;
#X connect 11 0 12 1;
#X connect 12 0 13 0;
#X connect 13 0 24 0;
#X connect 14 0 15 0;
#X connect 15 0 24 1;
#X connect 16 0 32 0;
#X connect 21 0 4 0;
#X connect 23 0 12 0;
#X connect 23 1 14 0;
#X connect 23 2 7 0;
#X connect 24 0 25 0;
#X connect 25 0 26 0;
#X connect 26 0 22 0;
#X connect 26 0 27 0;
#X connect 28 0 31 0;
#X connect 29 0 30 0;
#X connect 30 0 28 0;
#X connect 31 0 8 0;
#X connect 32 0 4 0;
#X connect 32 1 29 0;
#X coords 0 -1 1 1 146 260 1 3 100;
