#N canvas 927 134 943 647 10;
#X obj 34 183 extra/sv module_selected;
#X obj 58 124 loadbang;
#X obj 412 323 extra/sv module_selected;
#X floatatom 35 236 5 0 0 0 - - -;
#X msg 58 145 0;
#X text 30 -25 Mutiple use bit by bit & method to selec multiple module
for an unique int;
#X obj 458 -21 r ask_selection;
#X obj 505 213 t b f;
#X obj 517 359 +;
#X floatatom 424 345 5 0 0 0 - - -;
#X floatatom 527 49 5 0 0 0 - - -;
#X floatatom 582 219 5 0 0 0 - - -;
#X obj 505 191 i 1;
#X obj 755 23 metro 1000;
#X obj 755 -4 loadbang;
#X obj 821 -2 tgl 15 0 empty empty empty 17 7 0 10 -262144 -1 -1 0
1;
#X obj 755 77 + 1;
#X obj 755 50 i 0;
#X floatatom 755 104 5 0 0 0 - - -;
#X msg 641 32 0;
#X obj 756 190 sel 1;
#X msg 756 217 0;
#X text 669 -21 Deselection multiple après une période;
#X obj 364 72 extra/sv module_selected;
#X text 513 1 first check already selected;
#X obj 551 93 i 1;
#X obj 505 146 &;
#X obj 457 6 t b f b f;
#X obj 533 129 t f f;
#X obj 582 197 i 1;
#X obj 709 257 t b f;
#X obj 721 348 -;
#X floatatom 413 26 5 0 0 0 - - -;
#X obj 551 111 <<;
#X obj 552 75 t b f;
#X obj 615 310 extra/sv module_selected;
#X obj 505 168 sel 0;
#X obj 756 163 > 2;
#X obj 424 380 log 2;
#X obj 424 404 t f f;
#X obj 435 450 -;
#X obj 435 474 == 0;
#X obj 434 498 tgl 15 0 empty empty empty 17 7 0 10 -262144 -1 -1 1
1;
#X obj 450 430 i 0;
#X obj 387 499 spigot;
#X obj 256 444 extra/sv global_recraw;
#X obj 280 538 extra/sv global_rec;
#X text 212 413 Only single selection can rec;
#X obj 311 260 extra/sv module_last_selected;
#X obj 127 32 r ask_single_selection;
#X floatatom 127 53 5 0 0 0 - - -;
#X obj 126 91 i 1;
#X obj 126 109 <<;
#X obj 127 73 t b f;
#X obj 126 128 f 0;
#X connect 0 0 3 0;
#X connect 1 0 4 0;
#X connect 2 0 9 0;
#X connect 2 1 8 0;
#X connect 4 0 0 1;
#X connect 6 0 27 0;
#X connect 6 0 32 0;
#X connect 7 0 2 2;
#X connect 7 1 8 1;
#X connect 7 1 48 1;
#X connect 8 0 2 1;
#X connect 9 0 38 0;
#X connect 10 0 34 0;
#X connect 12 0 7 0;
#X connect 13 0 17 0;
#X connect 14 0 13 0;
#X connect 15 0 13 0;
#X connect 16 0 17 1;
#X connect 16 0 18 0;
#X connect 17 0 16 0;
#X connect 18 0 37 0;
#X connect 19 0 17 1;
#X connect 20 0 21 0;
#X connect 21 0 2 3;
#X connect 21 0 35 3;
#X connect 23 1 26 0;
#X connect 25 0 33 0;
#X connect 26 0 36 0;
#X connect 27 0 19 0;
#X connect 27 2 23 2;
#X connect 27 3 10 0;
#X connect 28 0 26 1;
#X connect 28 1 12 1;
#X connect 28 1 29 1;
#X connect 29 0 30 0;
#X connect 29 0 11 0;
#X connect 30 0 35 2;
#X connect 30 1 31 1;
#X connect 31 0 35 1;
#X connect 33 0 28 0;
#X connect 34 0 25 0;
#X connect 34 1 33 1;
#X connect 35 1 31 0;
#X connect 36 0 12 0;
#X connect 36 1 29 0;
#X connect 37 0 20 0;
#X connect 38 0 39 0;
#X connect 39 0 40 0;
#X connect 39 1 43 0;
#X connect 40 0 41 0;
#X connect 41 0 42 0;
#X connect 41 0 44 1;
#X connect 43 0 40 1;
#X connect 44 0 46 1;
#X connect 45 0 44 0;
#X connect 49 0 50 0;
#X connect 50 0 53 0;
#X connect 51 0 52 0;
#X connect 52 0 54 0;
#X connect 53 0 51 0;
#X connect 53 1 52 1;
#X connect 54 0 0 1;
#X connect 54 0 48 1;
