#N canvas 391 171 772 471 10;
#X obj 101 101 cnv 15 189 51 empty empty OSC 80 10 0 14 -232948 -66577
0;
#X obj 129 21 externals/osc/packOSC;
#X obj 129 43 externals/udpsend;
#X msg 273 -2 disconnect;
#X obj 218 103 tgl 15 0 empty empty connected 17 7 0 10 -262144 -1
-1 0 1;
#X obj 106 104 tgl 15 0 empty empty connect 17 7 0 10 -262144 -1 -1
1 1;
#X obj -12 119 s \$0_osc_connect;
#X obj 273 -54 r \$0_osc_connect;
#X obj 273 -27 sel 0 1;
#X obj 129 -44 receive toOSC;
#X obj 305 165 externals/udpreceive;
#X obj 305 192 externals/osc/unpackOSC;
#X obj 211 132 bng 15 250 50 0 empty empty receive 17 7 0 10 -262144
-1 -1;
#X obj 484 252 s fromOSC;
#X msg 306 141 port 9999;
#X msg 396 -18 1;
#X obj 382 -55 delay 200;
#X obj 382 -84 loadbang;
#X obj -175 22 externals/osc/packOSC;
#X obj -175 44 externals/udpsend;
#X msg -42 5 disconnect;
#X obj -31 -26 sel 0 1;
#X msg -11 -48 1;
#X obj -11 -69 delay 200;
#X obj -11 -92 loadbang;
#X obj -131 153 s toOSC;
#X msg -156 106 /python/app/close 1;
#X obj 135 243 sel 0;
#X obj 134 276 delay 2000;
#X msg 134 304 1;
#X obj 134 324 s \$0_osc_connect;
#X obj -161 213 sel 0;
#X obj -162 246 delay 2000;
#X msg -162 274 1;
#X obj -31 -123 r \$0_osc_connect_python;
#X obj -162 294 s \$0_osc_connect_python;
#X obj -175 -60 receive toPython;
#X obj 307 226 externals/osc/routeOSC /python;
#X obj 307 254 s toPython;
#X obj 129 -21 list prepend send;
#X obj 129 1 list trim;
#X obj -175 -35 list prepend send;
#X msg 306 141 port 9999;
#X msg -170 -95 /rpi/read 1;
#X msg -34 27 connect 127.0.0.1 12354;
#X obj -170 -6 list trim;
#X connect 1 0 2 0;
#X connect 2 0 4 0;
#X connect 3 0 14 0;
#X connect 4 0 27 0;
#X connect 5 0 6 0;
#X connect 7 0 8 0;
#X connect 8 0 3 0;
#X connect 8 1 14 0;
#X connect 9 0 39 0;
#X connect 10 0 11 0;
#X connect 10 0 12 0;
#X connect 11 0 37 0;
#X connect 15 0 5 0;
#X connect 16 0 42 0;
#X connect 16 0 15 0;
#X connect 17 0 16 0;
#X connect 18 0 19 0;
#X connect 19 0 31 0;
#X connect 20 0 19 0;
#X connect 21 0 20 0;
#X connect 21 1 44 0;
#X connect 22 0 21 0;
#X connect 23 0 22 0;
#X connect 24 0 23 0;
#X connect 26 0 25 0;
#X connect 27 0 28 0;
#X connect 28 0 29 0;
#X connect 29 0 30 0;
#X connect 31 0 32 0;
#X connect 32 0 33 0;
#X connect 33 0 35 0;
#X connect 34 0 21 0;
#X connect 36 0 41 0;
#X connect 37 0 38 0;
#X connect 37 1 13 0;
#X connect 39 0 40 0;
#X connect 40 0 1 0;
#X connect 41 0 45 0;
#X connect 42 0 10 0;
#X connect 43 0 41 0;
#X connect 44 0 19 0;
#X connect 45 0 18 0;
#X coords 0 -1 1 1 191 53 1 100 100;
