#N canvas 367 186 1339 514 12;
#X obj 43 247 s 1_1_loop_play;
#X obj 144 245 s 2_1_loop_play;
#X obj 244 245 s 3_1_loop_play;
#X obj 346 245 s 4_1_loop_play;
#X obj 39 300 s 5_1_loop_play;
#X obj 141 300 s 6_1_loop_play;
#X obj 241 300 s 7_1_loop_play;
#X obj 343 300 s 8_1_loop_play;
#X obj 523 218 tgl 15 0 empty empty empty 17 7 0 10 -262144 -1 -1 0
1;
#X obj 708 218 tgl 15 0 empty empty empty 17 7 0 10 -262144 -1 -1 0
1;
#X obj 888 218 tgl 15 0 empty empty empty 17 7 0 10 -262144 -1 -1 0
1;
#X obj 1073 218 tgl 15 0 empty empty empty 17 7 0 10 -262144 -1 -1
0 1;
#X obj 698 275 tgl 15 0 empty empty empty 17 7 0 10 -262144 -1 -1 0
1;
#X obj 457 301 extra/sv 1_2_loop_playsampler;
#X obj 641 301 extra/sv 2_2_loop_playsampler;
#X obj 878 275 tgl 15 0 empty empty empty 17 7 0 10 -262144 -1 -1 0
1;
#X obj 514 274 tgl 15 0 empty empty empty 17 7 0 10 -262144 -1 -1 0
1;
#X obj 1258 220 tgl 15 0 empty empty empty 17 7 0 10 -262144 -1 -1
0 1;
#X obj 1443 220 tgl 15 0 empty empty empty 17 7 0 10 -262144 -1 -1
0 1;
#X obj 1248 277 tgl 15 0 empty empty empty 17 7 0 10 -262144 -1 -1
0 1;
#X obj 822 301 extra/sv 3_2_loop_playsampler;
#X obj 1006 301 extra/sv 4_2_loop_playsampler;
#X obj 1192 303 extra/sv 5_2_loop_playsampler;
#X obj 1376 303 extra/sv 6_2_loop_playsampler;
#X obj 467 244 extra/sv 7_2_loop_playsampler;
#X obj 653 243 extra/sv 8_2_loop_playsampler;
#X obj 832 243 extra/sv 9_2_loop_playsampler;
#X obj 1016 244 extra/sv 10_2_loop_playsampler;
#X obj 1202 245 extra/sv 11_2_loop_playsampler;
#X obj 1389 244 extra/sv 12_2_loop_playsampler;
#X obj 1060 275 tgl 15 0 empty empty empty 17 7 0 10 -262144 -1 -1
0 1;
#X obj 1433 274 tgl 15 0 empty empty empty 17 7 0 10 -262144 -1 -1
0 1;
#X obj 503 152 route 60 61 62 63 64 65 66 67 68 69 70 71;
#X floatatom 412 3 0 0 0 0 - - -;
#X obj 396 -18 notein;
#X floatatom 394 64 0 0 0 0 - - -;
#X floatatom 437 4 0 0 0 0 - - -;
#X text 450 79 velocity;
#X text 464 10 channel;
#X text 446 -19 (omni);
#X text 356 -1 note;
#X obj 439 65 > 0;
#X obj 394 90 pack f f;
#X msg 571 -118 play;
#X msg 764 -120 stop;
#X obj 543 -61 midi.ev->note;
#X obj 543 -39 unpack f f;
#X floatatom 543 -4 0 0 0 0 - - -;
#X floatatom 600 -4 0 0 0 0 - - -;
#X text 636 6 channel;
#X obj 15 220 sel 0;
#X obj 117 220 sel 0;
#X obj 217 220 sel 0;
#X obj 319 220 sel 0;
#X obj 10 275 sel 0;
#X obj 112 275 sel 0;
#X obj 212 275 sel 0;
#X obj 314 275 sel 0;
#X obj 706 -150 spigot;
#X obj 745 -171 tgl 15 0 empty empty empty 17 7 0 10 -262144 -1 -1
0 1;
#X obj 706 -174 bng 15 250 50 0 empty empty empty 17 7 0 10 -262144
-1 -1;
#X obj 707 -200 r tempo_quantif_bang;
#X obj 543 -90 midi.track @join @tempo;
#X obj 297 -142 midi.file @length_beat;
#X obj 965 -231 extra/sv tempo;
#X obj 967 -204 extra/tempo_to_period;
#X floatatom 969 -179 5 0 0 0 - - -;
#X obj 1046 -256 bng 15 250 50 0 empty empty empty 17 7 0 10 -262144
-1 -1;
#X obj 969 -159 / 120;
#X floatatom 969 -138 5 0 0 0 - - -;
#X msg 935 -117 @speed \$1;
#X obj 706 -307 extra/sv midi_song_playstop;
#X obj 361 -248 extra/sv song;
#X obj 297 -221 pack \$1 \$2 1 s;
#X obj 461 -296 s get_samples_location;
#X obj 461 -317 i \$0;
#X obj 460 -247 symbol;
#X obj 460 -268 r samples_location-\$0;
#X obj 387 -426 r loadfilessong;
#X msg 297 -195 read \$4/\$3/song.mid \, bang;
#X obj 387 -382 t b b b b b;
#X obj 706 -278 sel 1 0;
#X msg 705 -116 0;
#X obj 1048 -287 r \$0_setTempo;
#X obj 359 -278 s \$0_setTempo;
#X msg 708 -238 1;
#X obj 154 -279 extra/sv midi_song_playstop;
#X msg 218 -303 0;
#X obj 386 -401 bng 15 250 50 0 empty empty empty 17 7 0 10 -262144
-1 -1;
#X obj 203 -138 print;
#X obj 103 123 route 48 49 50 51 52 53 54 55 56 57 58 59;
#X connect 8 0 24 1;
#X connect 9 0 25 1;
#X connect 10 0 26 1;
#X connect 11 0 27 1;
#X connect 12 0 14 1;
#X connect 15 0 20 1;
#X connect 16 0 13 1;
#X connect 17 0 28 1;
#X connect 18 0 29 1;
#X connect 19 0 22 1;
#X connect 30 0 21 1;
#X connect 31 0 23 1;
#X connect 32 0 16 0;
#X connect 32 1 12 0;
#X connect 32 2 15 0;
#X connect 32 3 30 0;
#X connect 32 4 19 0;
#X connect 32 5 31 0;
#X connect 32 6 8 0;
#X connect 32 7 9 0;
#X connect 32 8 10 0;
#X connect 32 9 11 0;
#X connect 32 10 17 0;
#X connect 32 11 18 0;
#X connect 33 0 41 0;
#X connect 34 0 35 0;
#X connect 34 1 33 0;
#X connect 34 2 36 0;
#X connect 35 0 42 0;
#X connect 41 0 42 1;
#X connect 42 0 32 0;
#X connect 42 0 90 0;
#X connect 43 0 62 0;
#X connect 44 0 62 0;
#X connect 45 0 46 0;
#X connect 46 0 47 0;
#X connect 46 1 48 0;
#X connect 47 0 35 0;
#X connect 48 0 41 0;
#X connect 50 1 0 0;
#X connect 51 1 1 0;
#X connect 52 1 2 0;
#X connect 53 1 3 0;
#X connect 54 1 4 0;
#X connect 55 1 5 0;
#X connect 56 1 6 0;
#X connect 57 1 7 0;
#X connect 58 0 43 0;
#X connect 58 0 82 0;
#X connect 59 0 58 1;
#X connect 60 0 58 0;
#X connect 61 0 60 0;
#X connect 62 0 45 0;
#X connect 63 0 62 0;
#X connect 64 1 65 0;
#X connect 65 0 66 0;
#X connect 66 0 68 0;
#X connect 67 0 64 2;
#X connect 68 0 69 0;
#X connect 69 0 70 0;
#X connect 70 0 62 0;
#X connect 71 0 81 0;
#X connect 72 0 73 2;
#X connect 73 0 79 0;
#X connect 75 0 74 0;
#X connect 76 0 73 3;
#X connect 77 0 76 0;
#X connect 78 0 88 0;
#X connect 79 0 63 0;
#X connect 79 0 89 0;
#X connect 80 1 87 0;
#X connect 80 2 84 0;
#X connect 80 3 73 0;
#X connect 80 4 75 0;
#X connect 81 0 85 0;
#X connect 81 1 44 0;
#X connect 82 0 59 0;
#X connect 83 0 67 0;
#X connect 85 0 59 0;
#X connect 87 0 86 1;
#X connect 88 0 80 0;
#X connect 90 0 50 0;
#X connect 90 1 51 0;
#X connect 90 2 52 0;
#X connect 90 3 53 0;
#X connect 90 4 54 0;
#X connect 90 5 55 0;
#X connect 90 6 56 0;
#X connect 90 7 57 0;
