#N canvas 559 292 1135 608 12;
#X msg 87 210 1;
#X msg 54 176 0;
#X text 135 152 1 starts playback;
#X text 138 175 0 stops it;
#X obj 359 51 extra/sv song;
#X obj 461 9 s get_samples_location;
#X obj 345 92 pack \$0 \$1 \$2 1 s;
#X obj 345 -34 t b b b b;
#X obj 365 -11 i \$0;
#X obj 461 58 symbol;
#X obj 461 32 r samples_location-\$0;
#X obj 54 152 sel 0;
#X obj 345 -55 bng 15 250 50 0 empty empty empty 17 7 0 10 -262144
-1 -1;
#X obj 345 -77 r loadfilessong;
#X obj 294 366 outlet~;
#X msg 353 291 1;
#X msg 59 285 0;
#N canvas 0 23 450 300 init 0;
#X obj 86 31 extra/svsave \$1_volume;
#X obj 91 74 extra/svsave \$1_sendA;
#X obj 94 119 extra/svsave \$1_sendB;
#X text 86 165 sapreset instead of svsave ??;
#X restore 123 66 pd init;
#X obj 639 93 openpanel;
#X obj 639 67 bang;
#X obj 677 217 savepanel;
#X obj 677 195 bng 15 250 50 0 empty empty empty 17 7 0 10 -262144
-1 -1;
#X obj 677 252 print;
#X obj 306 263 readsf~;
#X obj 54 126 extra/sv \$1_\$2_fileplayer_playstop;
#X obj 228 333 audio/mixer \$1_\$2_fileplayer;
#X obj 13 328 extra/sv \$1_\$3_fileplayer_end;
#X obj 639 19 r \$1_\$2_fileplayer_openbrowser;
#X obj 135 98 tgl 15 0 empty empty empty 17 7 0 10 -262144 -1 -1 0
1;
#X obj 306 209 symbol;
#X msg 306 234 open \$1;
#X obj 86 180 t b b b;
#X obj 450 255 print;
#X obj 682 374 extra/svpreset \$1_\$2_fileplayer_volume;
#X floatatom 683 402 5 0 0 0 - - -;
#X floatatom 769 348 5 0 0 0 - - -;
#X msg 345 118 symbol \$5/\$4/file\$2_\$3.wav;
#X connect 0 0 23 0;
#X connect 1 0 23 0;
#X connect 4 1 6 3;
#X connect 6 0 36 0;
#X connect 7 0 6 0;
#X connect 7 1 8 0;
#X connect 7 2 4 2;
#X connect 8 0 5 0;
#X connect 9 0 6 4;
#X connect 10 0 9 0;
#X connect 11 0 1 0;
#X connect 11 1 31 0;
#X connect 12 0 7 0;
#X connect 13 0 12 0;
#X connect 15 0 26 1;
#X connect 16 0 26 1;
#X connect 18 0 29 1;
#X connect 19 0 18 0;
#X connect 20 0 22 0;
#X connect 21 0 20 0;
#X connect 23 0 25 0;
#X connect 23 1 15 0;
#X connect 24 0 11 0;
#X connect 25 1 14 0;
#X connect 27 0 19 0;
#X connect 28 0 24 1;
#X connect 29 0 30 0;
#X connect 30 0 23 0;
#X connect 30 0 32 0;
#X connect 31 0 0 0;
#X connect 31 1 29 0;
#X connect 31 2 16 0;
#X connect 33 0 34 0;
#X connect 35 0 33 1;
#X connect 36 0 29 1;
