#N canvas 874 201 844 573 10;
#X floatatom 227 -393 5 0 0 0 - - -;
#X obj 227 -308 * 1;
#X obj 227 -357 t b f;
#X floatatom 252 -206 12 0 0 0 - - -;
#X obj 227 3 phasor~;
#X obj 227 -25 sig~;
#X obj 227 -51 pow -1;
#X obj 226 -129 / 1000;
#X obj 227 -152 f 0;
#X text 235 -273 duration in msec of reading;
#X text 206 -101 set phasor frequency;
#X obj 293 -396 extra/sv tempo;
#X obj 282 -51 r \$0_loop_phase;
#X obj 682 -337 s \$0_loop_start;
#X obj 590 -413 sel 0 1;
#X obj 511 -205 timer;
#X obj 437 -255 r tempo_click_bang;
#X floatatom 512 -152 5 0 0 0 - - -;
#X obj 670 -294 extra/sv tempo;
#X obj 630 -307 bang;
#X obj 630 -351 bng 35 250 50 0 empty empty empty 17 7 0 10 -4034 -1
-1;
#X obj 512 -178 % 500;
#X obj 512 -118 / 500;
#X obj 512 -95 s \$0_loop_phase;
#X obj 438 -318 extra/sv \$1_\$2_is_loop_playing;
#X obj 630 -382 t b b b;
#X msg 593 -352 1;
#X msg 556 -353 0;
#X obj 590 -434 extra/sv \$1_\$2_loop_playsampler;
#X floatatom 396 -39 10 0 0 0 - - -;
#X obj 396 -19 * 44.1;
#X obj 396 2 - 2;
#X obj 227 26 *~ 1;
#X obj 227 347 outlet~;
#X obj 396 -59 r \$1_\$2_timer;
#X obj 227 -435 r \$1_\$2_loop_size;
#X obj 634 -468 tgl 15 0 empty empty empty 17 7 0 10 -262144 -1 -1
0 1;
#X text 725 -357 why ???;
#X obj 560 -412 tgl 15 0 empty empty empty 17 7 0 10 -262144 -1 -1
0 1;
#X obj 334 126 inlet;
#X obj 404 131 extra/sv \$1_\$2_loop_playsampler;
#X obj 248 267 line 0;
#X obj 448 206 extra/sv \$1_\$2_loop_sampler_release;
#X msg 404 225 1 5;
#X obj 404 152 sel 1 0;
#X obj 448 179 t f b;
#X obj 448 232 pack f f;
#X msg 448 255 \$1 \$2;
#N canvas 0 23 450 300 init 0;
#X obj 128 92 extra/sv \$1_\$2_loop_sampler_release;
#X obj 196 42 loadbang;
#X msg 197 67 600;
#X connect 1 0 2 0;
#X connect 2 0 0 1;
#X restore 76 -431 pd init;
#X obj 444 319 print release;
#X obj 226 314 *~ 0;
#X obj 227 187 tabread4~;
#X connect 0 0 2 0;
#X connect 1 0 3 0;
#X connect 1 0 8 0;
#X connect 2 0 1 0;
#X connect 2 1 1 1;
#X connect 3 0 22 1;
#X connect 4 0 32 0;
#X connect 5 0 4 0;
#X connect 6 0 5 0;
#X connect 7 0 6 0;
#X connect 8 0 7 0;
#X connect 11 0 1 0;
#X connect 12 0 4 1;
#X connect 14 0 27 0;
#X connect 14 1 25 0;
#X connect 14 2 25 0;
#X connect 15 0 21 0;
#X connect 16 0 15 0;
#X connect 17 0 22 0;
#X connect 18 0 21 1;
#X connect 19 0 15 1;
#X connect 20 0 19 0;
#X connect 21 0 17 0;
#X connect 22 0 23 0;
#X connect 25 0 20 0;
#X connect 25 1 13 0;
#X connect 25 2 26 0;
#X connect 26 0 24 1;
#X connect 27 0 24 1;
#X connect 28 0 14 0;
#X connect 28 0 38 0;
#X connect 29 0 30 0;
#X connect 30 0 31 0;
#X connect 31 0 32 1;
#X connect 32 0 51 0;
#X connect 34 0 29 0;
#X connect 35 0 0 0;
#X connect 36 0 28 1;
#X connect 39 0 51 0;
#X connect 40 0 44 0;
#X connect 41 0 50 1;
#X connect 42 1 46 1;
#X connect 43 0 41 0;
#X connect 44 0 43 0;
#X connect 44 1 45 0;
#X connect 45 0 46 0;
#X connect 45 1 42 2;
#X connect 46 0 47 0;
#X connect 47 0 41 0;
#X connect 47 0 49 0;
#X connect 50 0 33 0;
#X connect 51 0 50 0;
