#N canvas 292 23 1442 914 10;
#X text 871 149 STYLE MANAGEMENT;
#X floatatom 823 359 5 0 0 0 - - -;
#X obj 400 226 r tempoValue;
#X obj 73 326 s tempoGoOutBang;
#X obj 174 180 r tempoGoIn;
#X obj 260 179 r tempoStopIn;
#X msg 260 211 0;
#X msg 181 211 1;
#X obj 218 326 s tempoStopOut;
#X obj 181 302 sel 1;
#X obj 208 545 bng 15 250 50 0 empty empty empty 17 7 0 10 -262144
-1 -1;
#X floatatom 541 440 10 0 0 0 - - -;
#X msg 209 368 stop;
#X obj 233 631 bng 15 250 50 0 empty empty empty 17 7 0 10 -262144
-1 -1;
#X obj 181 396 bang;
#N canvas 463 201 763 528 quantif 0;
#X msg 157 73 0;
#X obj 260 23 r tempoStopOut;
#X floatatom 157 139 5 0 0 0 - - -;
#X obj 157 105 i 0;
#X obj 214 105 + 1;
#X obj 157 198 % 8;
#X floatatom 157 222 5 0 0 0 - - -;
#X obj 86 59 inlet;
#X obj 157 264 outlet;
#X obj 157 242 sel 1;
#X obj 157 23 r tempoGoIn;
#X msg 260 135 8;
#X obj 306 147 extra/sv quantif_global;
#X obj 351 91 loadbang;
#X msg 351 116 4;
#X msg 270 300 0;
#X obj 233 273 t b b;
#X obj 233 300 f 0;
#X msg 233 328 1 \$1;
#X obj 502 77 inlet;
#X obj 366 223 *;
#X floatatom 286 208 7 0 0 0 - - -;
#X floatatom 506 222 5 0 0 0 - - -;
#X obj 276 382 line 0 50;
#X obj 353 270 r tempoStopOut;
#X obj 94 109 bng 15 250 50 0 empty empty empty 17 7 0 10 -262144 -1
-1;
#X obj 276 432 outlet;
#X obj 220 388 bng 15 250 50 0 empty empty empty 17 7 0 10 -262144
-1 -1;
#X obj 220 388 bng 15 250 50 0 empty empty empty 17 7 0 10 -262144
-1 -1;
#X floatatom 365 254 5 0 0 0 - - -;
#X connect 0 0 3 0;
#X connect 1 0 0 0;
#X connect 1 0 11 0;
#X connect 2 0 5 0;
#X connect 3 0 2 0;
#X connect 3 0 4 0;
#X connect 4 0 3 1;
#X connect 5 0 6 0;
#X connect 6 0 9 0;
#X connect 7 0 3 0;
#X connect 7 0 25 0;
#X connect 9 0 8 0;
#X connect 9 0 16 0;
#X connect 10 0 0 0;
#X connect 12 0 5 1;
#X connect 12 0 21 0;
#X connect 12 0 20 1;
#X connect 13 0 14 0;
#X connect 14 0 12 1;
#X connect 15 0 23 0;
#X connect 16 0 17 0;
#X connect 16 1 15 0;
#X connect 17 0 18 0;
#X connect 18 0 23 0;
#X connect 18 0 27 0;
#X connect 19 0 22 0;
#X connect 19 0 20 0;
#X connect 20 0 17 1;
#X connect 20 0 29 0;
#X connect 23 0 26 0;
#X connect 24 0 15 0;
#X restore 233 594 pd quantif;
#X obj 208 564 t b b;
#X obj 613 295 / 60;
#X obj 613 320 pow -1;
#X obj 613 344 * 1000;
#X obj 400 277 t b b f;
#X obj 400 311 s tempoGoIn;
#X obj 382 187 loadbang;
#X obj 891 317 r tempo_changestyle_fromUI;
#X obj 823 393 s tempo_style;
#X obj 876 496 loadbang;
#X msg 876 527 \; pd dsp 1;
#X obj 613 151 inlet;
#X obj 613 177 / 255;
#X obj 613 203 * 80;
#X obj 613 227 + 80;
#X text 699 163 tempo from potar;
#X obj 613 269 change;
#X obj 106 185 inlet;
#X text 956 521 DSP PURE DATA;
#X obj 819 149 inlet;
#X obj 819 175 / 255;
#X obj 819 201 * 4;
#X obj 823 302 + 1;
#X obj 889 352 s tempo_style_toUI;
#X obj 819 248 change;
#X floatatom 819 270 5 0 0 0 - - -;
#X obj 613 249 i 0;
#X obj 819 223 i 0;
#X obj 1075 152 inlet;
#X obj 1075 282 s transpose;
#X text 1121 160 PITCH GLOBAL;
#X obj 1075 184 / 255;
#X obj 1075 206 * 200;
#X obj 1075 259 - 100;
#X obj 1075 229 i 0;
#N canvas 904 352 470 409 changeTempoFromStyle 0;
#X msg 140 193 rewind;
#X msg 80 193 bang;
#X obj 160 243 textfile;
#X obj 160 266 unpack f;
#X obj 160 288 i 0;
#X obj 146 29 i 0;
#X obj 146 61 t b b f;
#X msg 193 194 read ../samples/\$1/tempo.txt;
#X obj 160 328 s tempo_fromStyle;
#X obj 146 -1 inlet;
#X connect 0 0 2 0;
#X connect 1 0 2 0;
#X connect 2 0 3 0;
#X connect 3 0 4 0;
#X connect 4 0 8 0;
#X connect 5 0 6 0;
#X connect 6 0 1 0;
#X connect 6 1 0 0;
#X connect 6 2 7 0;
#X connect 7 0 2 0;
#X connect 9 0 5 0;
#X restore 911 392 pd changeTempoFromStyle;
#X obj 722 392 extra/sv song;
#X floatatom 722 424 5 0 0 0 - - -;
#X obj 417 757 bng 15 250 50 0 empty empty empty 17 7 0 10 -262144
-1 -1;
#N canvas 356 178 697 443 saveTempoToFile 0;
#X obj 165 103 i 0;
#X msg 211 214 add2 \$1;
#X msg 267 215 clear;
#X obj 165 125 t b b f b;
#X obj 150 321 textfile;
#X obj 46 86 extra/sv song;
#X obj 165 30 inlet;
#X obj 11 262 pack 0 s f;
#X obj 171 174 s get_samples_location;
#X msg 11 287 write \$2/\$3/tempo.txt;
#X obj 42 335 print finalTempoTexte;
#X obj 171 152 i \$0;
#X obj 77 218 symbol;
#X obj 77 195 r samples_location-\$0;
#X connect 0 0 3 0;
#X connect 1 0 4 0;
#X connect 2 0 4 0;
#X connect 3 0 7 0;
#X connect 3 1 11 0;
#X connect 3 2 1 0;
#X connect 3 3 2 0;
#X connect 5 0 7 2;
#X connect 6 0 0 0;
#X connect 7 0 9 0;
#X connect 9 0 4 0;
#X connect 9 0 10 0;
#X connect 11 0 8 0;
#X connect 12 0 7 1;
#X connect 13 0 12 0;
#X restore 444 868 pd saveTempoToFile;
#X obj 416 814 f 0;
#X obj 583 727 r loadsong;
#X text 420 702 save a song;
#X text 581 700 load a song;
#X obj 660 727 extra/sv song;
#N canvas 882 228 470 409 changeTempoFromSong 0;
#X msg 140 193 rewind;
#X msg 80 193 bang;
#X obj 160 243 textfile;
#X obj 160 266 unpack f;
#X obj 146 21 i 0;
#X obj 146 -1 inlet;
#X obj 246 111 s get_samples_location;
#X obj 184 173 pack 0 s f;
#X obj 146 44 t b b b b f;
#X msg 193 194 read \$2/\$3/tempo.txt;
#X obj 246 88 i \$0;
#X obj 208 128 r samples_location-\$0;
#X obj 156 375 s tempo_fromSong;
#X floatatom 117 332 5 0 0 0 - - -;
#X obj 210 149 symbol;
#X obj 160 288 / 100;
#X connect 0 0 2 0;
#X connect 1 0 2 0;
#X connect 2 0 3 0;
#X connect 3 0 15 0;
#X connect 4 0 8 0;
#X connect 5 0 4 0;
#X connect 7 0 9 0;
#X connect 8 0 1 0;
#X connect 8 1 0 0;
#X connect 8 2 7 0;
#X connect 8 3 10 0;
#X connect 8 4 7 2;
#X connect 9 0 2 0;
#X connect 10 0 6 0;
#X connect 11 0 14 0;
#X connect 14 0 7 1;
#X connect 15 0 12 0;
#X connect 15 0 13 0;
#X restore 658 827 pd changeTempoFromSong;
#X obj 181 259 extra/sv tempo_isplaying;
#X text 213 277 Change on tempo;
#X obj 610 865 s tempoStopIn;
#X obj 629 779 i 1;
#X msg 589 845 4;
#X obj 573 891 extra/sv quantif_global;
#X obj 417 728 r save_song;
#X text 871 689 Location for saving preset;
#X obj 857 717 r get_preset_location;
#X text 1071 689 Location for saving wav file;
#X obj 1086 717 r get_samples_location;
#N canvas 405 173 621 526 ableton 0;
#X floatatom -55 133 5 0 0 1 phase - -;
#X floatatom -187 89 5 0 0 1 step - -;
#X floatatom -13 88 10 0 0 1 tempo - -;
#X floatatom 37 71 5 0 0 1 is_playing - -;
#X obj -163 40 externals/abl_link~ 1 0 4 134;
#X obj 25 134 bng 15 250 50 0 empty empty empty 17 7 0 10 -262144 -1
-1;
#X obj 60 104 change;
#X obj -161 -32 tgl 15 0 empty empty empty 17 7 0 10 -262144 -1 -1
1 1;
#X msg -161 -11 connect \$1;
#X obj -118 -54 tgl 15 0 empty empty empty 17 7 0 10 -262144 -1 -1
0 1;
#X msg -118 -34 play \$1;
#X msg 1 -10 tempo \$1;
#X floatatom 4 -32 5 0 0 2 tempo - -;
#X obj 2 -83 extra/sv tempo;
#X obj -64 211 bng 15 250 50 0 empty empty empty 17 7 0 10 -262144
-1 -1;
#X obj 92 235 extra/sv quantif_global;
#X obj 74 258 / 4;
#X floatatom 74 289 5 0 0 1 phase - -;
#X obj -187 326 outlet;
#X obj -65 327 outlet;
#X obj 74 408 outlet;
#X obj -187 287 bng 15 250 50 0 empty empty empty 17 7 0 10 -262144
-1 -1;
#X obj -156 171 spigot;
#X obj -148 194 sel 0;
#X msg -148 220 1;
#X obj -187 261 spigot;
#X obj -105 171 sel 1;
#X obj -148 241 change;
#X obj -126 140 tgl 15 0 empty empty empty 17 7 0 10 -262144 -1 -1
0 1;
#X obj -131 107 extra/sv tempo_isplaying;
#X obj -163 -80 loadbang;
#X msg -161 -54 1;
#X obj -194 126 t f f;
#X obj 74 332 i 0;
#X obj 75 355 change;
#X obj 74 310 * 25;
#X obj 77 384 / 25;
#X obj 2 -63 extra/period_to_tempo;
#X obj 58 127 extra/tempo_to_period;
#X obj 273 192 outlet;
#X connect 0 0 16 0;
#X connect 1 0 32 0;
#X connect 2 0 6 0;
#X connect 4 0 1 0;
#X connect 4 1 0 0;
#X connect 4 3 2 0;
#X connect 4 4 3 0;
#X connect 6 0 5 0;
#X connect 6 0 38 0;
#X connect 7 0 8 0;
#X connect 8 0 4 0;
#X connect 9 0 10 0;
#X connect 10 0 4 0;
#X connect 11 0 4 0;
#X connect 12 0 11 0;
#X connect 13 0 37 0;
#X connect 14 0 19 0;
#X connect 15 0 16 1;
#X connect 16 0 17 0;
#X connect 17 0 35 0;
#X connect 21 0 18 0;
#X connect 22 0 23 0;
#X connect 23 0 24 0;
#X connect 23 0 14 0;
#X connect 24 0 27 0;
#X connect 25 0 21 0;
#X connect 26 1 27 0;
#X connect 27 0 25 1;
#X connect 28 0 26 0;
#X connect 28 0 22 1;
#X connect 29 0 28 0;
#X connect 30 0 31 0;
#X connect 31 0 7 0;
#X connect 32 0 25 0;
#X connect 32 1 22 0;
#X connect 33 0 34 0;
#X connect 34 0 36 0;
#X connect 35 0 33 0;
#X connect 36 0 20 0;
#X connect 37 0 12 0;
#X connect 38 0 39 0;
#X restore 50 441 pd ableton link;
#N canvas 832 235 663 436 final_tempo_sender 0;
#X obj 252 107 inlet;
#X obj 370 107 inlet;
#X obj 493 107 inlet;
#X text 494 71 tempo slider;
#X text 390 71 quantif bang;
#X text 295 70 click bang;
#X obj 203 261 s tempo_click_bang;
#X obj 341 260 s tempo_quantif_bang;
#X obj 490 261 s global_tempo_slider;
#X floatatom 148 65 5 0 0 0 - - -;
#X obj 148 43 r #abl_link_num_peers;
#X obj 252 166 spigot 1;
#X obj -237 107 inlet;
#X obj -141 107 inlet;
#X obj -55 107 inlet;
#X text -85 73 tempo slider;
#X text -189 73 quantif bang;
#X text -284 72 click bang;
#X text 320 42 ------ Standard tempo bang ------;
#X text -250 38 ------ Ableton Link tempo ------;
#X obj 106 146 tgl 15 0 empty empty empty 17 7 0 10 -262144 -1 -1 0
1;
#X obj 194 120 == 0;
#X obj 193 151 tgl 15 0 empty empty empty 17 7 0 10 -262144 -1 -1 1
1;
#X obj 370 166 spigot 1;
#X obj 490 185 spigot 1;
#X obj -237 161 spigot 1;
#X obj -141 161 spigot 1;
#X obj -55 161 spigot 1;
#X obj 117 118 >= 1;
#X obj 665 216 r metronome;
#X obj 31 105 inlet;
#X text 24 72 tempo value;
#X obj 31 161 spigot 0;
#X obj 4 255 extra/sv tempo;
#X connect 0 0 11 0;
#X connect 1 0 23 0;
#X connect 2 0 24 0;
#X connect 9 0 21 0;
#X connect 9 0 28 0;
#X connect 10 0 9 0;
#X connect 11 0 6 0;
#X connect 12 0 25 0;
#X connect 13 0 26 0;
#X connect 14 0 27 0;
#X connect 20 0 27 1;
#X connect 20 0 26 1;
#X connect 20 0 25 1;
#X connect 20 0 32 1;
#X connect 21 0 22 0;
#X connect 22 0 11 1;
#X connect 22 0 23 1;
#X connect 22 0 24 1;
#X connect 23 0 7 0;
#X connect 24 0 8 0;
#X connect 25 0 6 0;
#X connect 26 0 7 0;
#X connect 27 0 8 0;
#X connect 28 0 20 0;
#X connect 30 0 32 0;
#X connect 32 0 33 1;
#X restore 110 672 pd final_tempo_sender;
#X obj 983 818 i 0;
#X obj 857 842 pack s f;
#X msg 857 871 \; preset_location-\$2 \$1;
#X msg 1085 870 \; samples_location-\$2 \$1;
#X obj 203 437 metro 750;
#N canvas 246 83 446 374 metronome 0;
#X obj 80 110 i 0;
#X obj 85 356 dac~;
#N canvas 313 577 431 337 clickHigh~ 0;
#X obj 211 64 inlet bng;
#X obj 211 86 bng 15 250 50 0 empty empty empty 17 7 0 10 -262144 -1
-1;
#X obj 241 116 del 30;
#X msg 241 138 0;
#X obj 129 177 osc~ 4000;
#X obj 129 219 *~ 0;
#X obj 129 261 outlet~;
#X text 120 20 just generate click sound;
#X obj 211 178 f;
#X msg 211 138 0.1;
#X connect 0 0 1 0;
#X connect 1 0 9 0;
#X connect 1 0 2 0;
#X connect 2 0 3 0;
#X connect 3 0 8 0;
#X connect 4 0 5 0;
#X connect 5 0 6 0;
#X connect 8 0 5 1;
#X connect 9 0 8 0;
#X restore 30 280 pd clickHigh~;
#N canvas 307 594 431 337 clickLow~ 0;
#X obj 211 64 inlet bng;
#X obj 211 86 bng 15 250 50 0 empty empty empty 17 7 0 10 -262144 -1
-1;
#X msg 241 138 0;
#X obj 129 219 *~ 0;
#X obj 129 261 outlet~;
#X text 120 20 just generate click sound;
#X obj 211 178 f;
#X msg 211 138 0.1;
#X obj 129 177 osc~ 3200;
#X obj 241 116 del 15;
#X connect 0 0 1 0;
#X connect 1 0 7 0;
#X connect 1 0 9 0;
#X connect 2 0 6 0;
#X connect 3 0 4 0;
#X connect 6 0 3 1;
#X connect 7 0 6 0;
#X connect 8 0 3 0;
#X connect 9 0 2 0;
#X restore 127 281 pd clickLow~;
#X obj 80 138 sel 1;
#X obj 80 166 i 0;
#X obj 80 58 r tempo_click_bang;
#X obj 210 57 inlet;
#X obj 296 83 r tempo_quantif_bang;
#X msg 274 131 0;
#X obj 80 195 + 1;
#X obj 332 152 bng 15 250 50 0 empty empty empty 17 7 0 10 -262144
-1 -1;
#X obj 92 83 bng 15 250 50 0 empty empty empty 17 7 0 10 -262144 -1
-1;
#X obj 80 248 sel 1;
#X obj 95 327 *~ 0.4;
#X connect 0 0 4 0;
#X connect 2 0 14 0;
#X connect 3 0 14 0;
#X connect 4 0 5 0;
#X connect 5 0 10 0;
#X connect 6 0 0 0;
#X connect 6 0 12 0;
#X connect 7 0 0 1;
#X connect 8 0 9 0;
#X connect 8 0 11 0;
#X connect 9 0 5 1;
#X connect 10 0 5 1;
#X connect 10 0 13 0;
#X connect 13 0 2 0;
#X connect 13 1 3 0;
#X connect 14 0 1 1;
#X connect 14 0 1 0;
#X restore 598 573 pd metronome;
#X obj 599 527 tgl 15 0 empty empty empty 17 7 0 10 -262144 -1 -1 0
1;
#X obj 625 543 r metronome;
#X obj 100 76 cnv 15 600 60 empty empty TEMPO 20 12 0 14 -204800 -66577
0;
#X obj 441 402 extra/sv tempo;
#X obj 431 787 * 100;
#X obj 541 462 extra/period_to_tempo;
#X floatatom 541 484 10 0 0 0 - - -;
#X obj 493 227 r tempo_fromSong;
#X obj 933 763 r patch_folder;
#X obj 857 787 symbol;
#X msg 857 814 \$1/preset;
#X obj 857 764 t b f;
#X obj 1212 815 i 0;
#X obj 1086 839 pack s f;
#X obj 1162 760 r patch_folder;
#X obj 1086 784 symbol;
#X obj 1086 761 t b f;
#X text 959 903 patch_folder is given from nogui.pd;
#X msg 1086 811 \$1/samples;
#X obj 1286 762 r patch_folder;
#X obj 1286 824 delay 200;
#X obj 1286 848 s patch_loaded;
#X obj 1286 791 bang;
#X obj 787 873 print;
#X obj 629 803 t f f;
#N canvas 658 90 568 347 changePresetFromSong 0;
#X obj 163 40 inlet;
#X obj 164 312 preset.storage;
#X obj 163 65 i 0;
#X obj 182 147 s get_samples_location;
#X obj 163 219 pack 0 s f;
#X obj 182 124 i \$0;
#X obj 191 175 r samples_location-\$0;
#X obj 191 194 symbol;
#X msg 163 243 read \$2/\$3/preset.txt;
#X obj 163 86 t b b b f;
#X msg 124 247 load;
#X connect 0 0 2 0;
#X connect 2 0 9 0;
#X connect 4 0 8 0;
#X connect 5 0 3 0;
#X connect 6 0 7 0;
#X connect 7 0 4 1;
#X connect 8 0 1 0;
#X connect 9 0 10 0;
#X connect 9 1 4 0;
#X connect 9 2 5 0;
#X connect 9 3 4 2;
#X connect 10 0 1 0;
#X restore 627 846 pd changePresetFromSong;
#X obj 416 840 t f f;
#N canvas 1032 266 550 373 savePresetToFile 0;
#X obj 165 106 s get_samples_location;
#X obj 146 173 pack 0 s f;
#X obj 165 83 i \$0;
#X obj 172 128 r samples_location-\$0;
#X obj 172 149 symbol;
#X msg 146 193 write \$2/\$3/preset.txt;
#X obj 146 230 preset.storage;
#X obj 146 -32 inlet;
#X obj 289 240 print presetFile;
#X obj 331 100 extra/sv song;
#X obj 146 14 t b b b;
#X obj 146 -9 bang;
#X msg 185 40 store;
#X connect 1 0 5 0;
#X connect 2 0 0 0;
#X connect 3 0 4 0;
#X connect 4 0 1 1;
#X connect 5 0 6 0;
#X connect 5 0 8 0;
#X connect 7 0 11 0;
#X connect 9 0 1 2;
#X connect 10 0 1 0;
#X connect 10 1 2 0;
#X connect 10 2 12 0;
#X connect 11 0 10 0;
#X connect 12 0 6 0;
#X restore 414 905 pd savePresetToFile;
#X obj 583 753 t b b b;
#X obj 553 911 s loadfilessong;
#X msg 554 352 300;
#X obj 511 280 loadbang;
#X msg 514 351 498;
#X connect 1 0 24 0;
#X connect 1 0 51 0;
#X connect 2 0 20 0;
#X connect 4 0 7 0;
#X connect 5 0 6 0;
#X connect 6 0 62 1;
#X connect 7 0 62 1;
#X connect 9 0 3 0;
#X connect 9 0 14 0;
#X connect 9 1 8 0;
#X connect 9 1 12 0;
#X connect 10 0 16 0;
#X connect 11 0 86 0;
#X connect 12 0 79 0;
#X connect 14 0 79 0;
#X connect 15 0 13 0;
#X connect 15 0 74 5;
#X connect 15 1 74 6;
#X connect 16 0 74 4;
#X connect 16 1 15 0;
#X connect 17 0 18 0;
#X connect 18 0 19 0;
#X connect 20 0 21 0;
#X connect 20 2 84 1;
#X connect 22 0 6 0;
#X connect 23 0 1 0;
#X connect 25 0 26 0;
#X connect 27 0 28 0;
#X connect 28 0 29 0;
#X connect 29 0 30 0;
#X connect 30 0 42 0;
#X connect 32 0 17 0;
#X connect 35 0 36 0;
#X connect 36 0 37 0;
#X connect 37 0 43 0;
#X connect 38 0 39 0;
#X connect 38 0 52 1;
#X connect 38 0 1 0;
#X connect 40 0 41 0;
#X connect 41 0 38 0;
#X connect 42 0 32 0;
#X connect 43 0 40 0;
#X connect 44 0 47 0;
#X connect 47 0 48 0;
#X connect 48 0 50 0;
#X connect 49 0 45 0;
#X connect 50 0 49 0;
#X connect 52 0 53 0;
#X connect 54 0 56 0;
#X connect 56 0 107 0;
#X connect 57 0 109 0;
#X connect 60 0 65 1;
#X connect 62 0 9 0;
#X connect 65 0 105 0;
#X connect 66 0 67 1;
#X connect 68 0 54 0;
#X connect 70 0 92 0;
#X connect 72 0 97 0;
#X connect 73 0 74 0;
#X connect 73 1 74 1;
#X connect 73 2 74 2;
#X connect 75 0 76 1;
#X connect 76 0 77 0;
#X connect 79 0 10 0;
#X connect 81 0 80 0;
#X connect 82 0 80 0;
#X connect 84 0 79 1;
#X connect 84 0 11 0;
#X connect 84 0 15 1;
#X connect 84 0 85 0;
#X connect 85 0 56 1;
#X connect 86 0 87 0;
#X connect 88 0 20 0;
#X connect 89 0 90 1;
#X connect 90 0 91 0;
#X connect 91 0 76 0;
#X connect 92 0 90 0;
#X connect 92 1 75 0;
#X connect 93 0 94 1;
#X connect 94 0 78 0;
#X connect 95 0 96 1;
#X connect 96 0 99 0;
#X connect 97 0 96 0;
#X connect 97 1 93 0;
#X connect 99 0 94 0;
#X connect 100 0 103 0;
#X connect 101 0 102 0;
#X connect 103 0 101 0;
#X connect 105 0 106 0;
#X connect 105 1 61 0;
#X connect 107 0 108 0;
#X connect 107 1 55 0;
#X connect 109 0 110 0;
#X connect 109 1 66 0;
#X connect 109 1 65 0;
#X connect 109 2 64 0;
#X connect 111 0 84 1;
#X connect 112 0 113 0;
#X connect 113 0 84 1;
#X coords 0 914 1 913 1000 60 0;
